<svg width="337" height="108" viewBox="0 0 337 108" fill="none" xmlns="http://www.w3.org/2000/svg">
<path d="M12.9159 2.70865C12.9532 3.00345 12.8299 3.3293 12.5454 3.67841C12.2609 4.02752 11.9766 4.22053 11.7161 4.26413C11.4474 4.3003 11.2605 4.27016 11.1554 4.17369C10.3392 3.2681 9.50883 2.87049 8.66468 2.98864C7.82053 3.10678 7.06302 3.57982 6.39216 4.40775C5.72129 5.23569 5.18239 6.23686 4.78279 7.40311C4.38318 8.56937 4.05821 9.84135 3.81557 11.2187C3.35832 13.7535 3.19814 16.04 3.35044 18.0776C3.4333 18.6746 3.57728 19.097 3.77504 19.353C3.98051 19.6086 4.36346 19.6996 4.91583 19.6188C5.47627 19.5453 6.19203 19.1679 7.06311 18.4866C7.93419 17.8052 8.61089 16.938 9.10016 15.8689C9.68687 14.2567 9.94452 13.1909 9.8735 12.6791C9.83611 12.3843 9.67519 12.2515 9.39882 12.288C8.47797 12.4176 7.81581 12.4647 7.4054 12.4452C6.98728 12.426 6.70228 12.2835 6.53535 12.026C6.28606 11.9832 6.13718 11.7796 6.08833 11.4073C5.98217 10.6475 6.76168 10.15 8.41181 9.92332C9.57274 9.80573 10.4729 9.88785 11.1127 10.1774C11.7524 10.467 12.15 11.1818 12.3046 12.3061C12.3516 12.6395 12.3666 12.9509 12.3493 13.2327C12.2401 14.4945 11.896 15.6893 11.3245 16.8169C10.7531 17.9445 10.0644 18.8825 9.26643 19.6385C7.58761 21.1933 6.01526 22.0718 4.549 22.2664C3.74302 22.3749 2.9726 22.0993 2.25279 21.4311C1.52527 20.7632 1.07827 19.8245 0.911048 18.5993C0.576603 16.1489 0.63978 13.7733 1.08479 11.4655C1.99287 6.58348 3.41953 3.32363 5.34125 1.67924C6.06117 1.0675 6.99314 0.687635 8.12907 0.532218C8.42086 0.494944 8.76735 0.470681 9.16197 0.483154C9.96229 0.577816 10.7624 0.828579 11.5774 1.22692C12.3923 1.62527 12.8334 2.11942 12.9162 2.71644L12.9159 2.70865Z" fill="currentColor"/>
<path d="M16.9317 7.77847C17.3395 7.74349 17.62 7.7926 17.7813 7.93323C18.2141 8.25607 18.0303 9.41207 17.2153 11.4175C16.9536 12.0778 16.8842 12.401 16.9921 12.3959C17.1671 12.0208 17.6133 11.5001 18.3453 10.8175C19.0772 10.135 19.5368 9.73075 19.7319 9.61221C19.9271 9.49368 20.1376 9.37441 20.3563 9.26257L20.39 9.24532C20.5889 9.14362 20.7123 9.08053 20.7404 9.05701C21.1307 8.81994 21.5806 8.69711 22.1063 8.70336C22.6242 8.70998 22.9551 8.84255 23.0916 9.10922C23.1006 9.29611 23.2311 9.4382 23.4595 9.52881L23.6138 9.68537C23.6209 9.83332 23.5147 10.0335 23.2723 10.2947C23.0296 10.5482 22.7743 10.7008 22.4983 10.7451C22.2223 10.7895 21.9038 10.9139 21.5432 11.1261C21.1826 11.3384 20.8297 11.5502 20.5007 11.7766C20.1639 12.0033 19.9171 12.1711 19.7527 12.2882C19.6938 12.3302 19.6282 12.3775 19.5561 12.4294L19.5548 12.4304C19.4264 12.523 19.2775 12.6304 19.1105 12.748C18.6275 13.1455 18.2014 13.6028 17.8327 14.1276C17.3799 14.672 17.119 15.0278 17.0567 15.1791C16.9398 15.3173 16.8333 15.6736 16.7444 16.2319C16.6554 16.7903 16.6106 17.1436 16.6243 17.2678C16.5773 17.5744 16.4601 17.8688 16.281 18.1583C16.1018 18.4477 15.9173 18.6282 15.7276 18.6997C15.5379 18.7711 15.2787 18.682 14.9344 18.4329C14.3291 18.0559 14.0298 17.6174 14.0521 17.1169C14.0743 16.6163 14.1838 15.6824 14.3806 14.315C14.3947 13.8071 14.6006 12.7905 14.9984 11.2653C15.3962 9.74012 15.7478 8.70102 16.0534 8.14798C16.2213 7.94489 16.5093 7.82975 16.9171 7.79477L16.9317 7.77847Z" fill="currentColor"/>
<path fill-rule="evenodd" clip-rule="evenodd" d="M23.4824 16.4425C23.7356 16.7271 23.8625 16.9552 23.8708 17.1265C23.8727 17.1654 24.0093 17.276 24.2727 17.4508C24.5438 17.6252 24.7055 17.7737 24.7647 17.8801C26.0929 18.6677 27.9632 17.7204 30.3761 15.0459C30.6624 14.7357 30.8666 14.484 30.9887 14.2909C31.0806 14.7548 31.2623 15.1598 31.534 15.506C32.3111 16.8817 33.4195 17.4378 34.8515 17.1746C35.3473 17.0418 35.5884 16.5933 35.5516 15.8302C35.5354 15.4954 35.3095 15.2954 34.8586 15.2388C34.4078 15.1821 34.0882 14.9632 33.8841 14.5748C33.1933 13.5462 33.0305 12.4145 33.4106 11.1633L33.829 9.74642C32.5652 8.6904 31.7451 8.02694 31.3848 7.76309C31.1772 7.62466 31.0563 7.52114 31.0152 7.46846C30.7102 7.2332 30.357 7.1173 29.9473 7.11334C29.5377 7.10939 29.1498 7.23708 28.7683 7.49714C28.3868 7.7572 27.8914 8.2178 27.2666 8.87964C26.6418 9.54149 26.2987 9.95583 26.2299 10.1308L26.0277 10.5853C25.9584 10.5886 25.8905 10.623 25.8395 10.6879C25.7889 10.7605 25.7611 10.8243 25.7649 10.9021C25.7051 10.944 25.597 11.1052 25.4332 11.394C25.2694 11.6827 25.1323 11.8843 25.0297 11.9985C23.707 14.6914 23.1914 16.1754 23.4824 16.4425ZM26.8654 13.6985C28.333 10.9674 29.41 9.58951 30.096 9.55692C30.4044 9.54228 30.7373 9.87767 31.079 10.556L30.5108 11.5898C30.2451 12.0083 29.9475 12.4048 29.6098 12.7721C29.4822 12.903 29.3673 13.0125 29.2677 13.1074C29.218 13.1548 29.1719 13.1988 29.1301 13.2397C29.0613 13.3073 28.9676 13.3925 28.8519 13.4978C28.7569 13.5843 28.6469 13.6843 28.5236 13.7993C28.2423 14.0546 28.0282 14.2599 27.8657 14.4159C27.0439 15.1573 26.4819 15.5196 26.1871 15.4946C26.3758 14.7598 26.6093 14.1556 26.8654 13.6985Z" fill="currentColor"/>
<path d="M44.0543 9.33874L44.7548 9.12596C45.0331 9.12835 45.3239 9.23161 45.6273 9.43572C45.9308 9.63984 46.0793 9.8357 46.0817 10.0463C46.0843 10.1008 46.1343 10.1765 46.2471 10.2726C46.5735 10.6317 46.7402 11.0452 46.7319 11.5139C46.7236 11.9826 46.5707 12.8171 46.2731 14.0176C45.9679 15.2184 45.8182 15.9591 45.8009 16.2409C45.7913 16.5223 45.8268 16.7782 45.8993 17.0011C45.9796 17.2236 46.0187 17.3934 46.0158 17.495C46.013 17.5966 45.9269 17.7334 45.7579 17.9131C45.5888 18.0928 45.3224 18.1757 44.9667 18.1692C44.6033 18.1631 44.2614 17.9608 43.9328 17.5549C43.6042 17.1491 43.4406 16.6418 43.4499 16.0326C43.4592 15.4234 43.6706 14.3597 44.0988 12.8253C44.1167 12.7152 44.1349 12.6128 44.1543 12.5339C44.1636 12.4959 44.1712 12.4598 44.1781 12.4273C44.1855 12.3922 44.192 12.3613 44.1988 12.3366C44.2043 12.3168 44.2086 12.2984 44.2126 12.2809C44.2182 12.2563 44.2235 12.2333 44.2314 12.2102C44.2372 12.1709 44.2427 12.1238 44.247 12.0534C44.244 11.9911 44.2113 11.9536 44.1342 11.9573C44.0571 11.961 43.9434 12.0054 43.7853 12.0909C43.6271 12.1765 43.4778 12.285 43.3363 12.3932C43.2443 12.4635 43.1308 12.5578 42.9932 12.672C42.919 12.7336 42.8376 12.8012 42.7491 12.8738C42.4964 13.0809 42.2807 13.255 42.0937 13.381C41.9066 13.507 41.5123 13.8223 40.9182 14.3188C39.3819 15.6249 38.5482 16.281 38.4091 16.2798C38.27 16.2786 37.9931 16.1435 37.5784 15.8744C37.1636 15.6053 36.9567 15.3186 36.9648 15.006C36.9652 14.6938 37.1422 14.0376 37.488 13.0378C37.8334 12.0302 38.2417 11.0431 38.7204 10.076C38.7768 9.96405 38.8451 9.6174 38.9256 9.04384C39.0832 8.14663 39.3555 7.70445 39.7497 7.70914C40.144 7.71382 40.4933 7.90795 40.8127 8.28301C41.1321 8.65807 41.2896 9.04082 41.2848 9.42347C41.2801 9.80612 41.1859 10.2555 41.0021 10.7715C40.818 11.2797 40.6936 11.5822 40.6133 11.6797C40.647 11.6641 40.6918 11.6232 40.7589 11.5619L40.7842 11.5389C40.9686 11.3584 41.2668 11.1335 41.6795 10.8798C42.2616 10.4541 42.7403 10.127 43.1383 9.88955L44.062 9.33838L44.0543 9.33874Z" fill="currentColor"/>
<path d="M53.5148 15.9839C53.54 15.5456 53.4521 15.3235 53.2505 15.3096L53.2586 15.317C52.6513 15.541 52.287 15.6754 52.1736 15.7276C51.5169 16.0476 51.1476 16.0807 51.0505 15.8278C50.8407 15.3226 51.1705 14.4719 52.04 13.2755C53.2939 11.5614 54.3201 10.7322 55.1116 10.8038C55.4765 10.8411 55.6891 10.9247 55.7487 11.0389C55.8083 11.1532 55.7675 11.4283 55.6266 11.872C55.4566 12.1923 55.1727 13.033 54.7744 14.3865C54.3761 15.74 54.1205 16.6887 54.0161 17.2478C53.9696 18.0461 54.0899 18.6179 54.3843 18.9551C54.8112 19.3173 55.3109 19.4262 55.8984 19.2735C56.244 19.0697 56.4269 18.8581 56.4392 18.6312C56.3584 17.917 56.3724 17.2452 56.4815 16.6234C56.5909 16.0095 56.9232 15.0493 57.4633 13.7515C57.9042 12.8018 58.1759 12.188 58.2549 11.9032C58.3339 11.6185 58.4225 11.3724 58.521 11.1726C58.5762 11.0606 58.6401 10.9261 58.714 10.7704L58.7144 10.7696C58.7723 10.6478 58.8362 10.513 58.907 10.366C59.0686 10.0305 59.2498 9.62388 59.4428 9.13863C59.6361 8.66118 60.1763 7.52726 61.0561 5.74505C61.9282 3.9632 62.3884 2.77065 62.4281 2.1522C62.3698 1.90522 62.2033 1.65558 61.9439 1.40255C61.6767 1.14988 61.4556 1.05112 61.2644 1.09142L60.4707 1.29302C60.4336 1.326 60.3904 1.39049 60.349 1.49392C60.3261 1.55114 60.2944 1.62073 60.2564 1.70389L60.2559 1.70498L60.2551 1.70674C60.2248 1.77317 60.1906 1.84821 60.1538 1.93244C60.0857 2.0884 59.8492 2.58441 59.4485 3.42449L59.4476 3.42641L59.4469 3.42787L59.151 4.04829C58.5606 5.26263 57.9461 6.6186 57.2998 8.11657C57.1035 8.53173 56.9459 8.78896 56.8186 8.87305C56.6913 8.95715 56.4671 8.95219 56.1381 8.85855C55.3989 8.2693 54.3116 8.31314 52.8764 8.99007C52.461 9.18931 52.1973 9.32671 52.1012 9.41712C50.9028 10.5199 49.9732 11.7503 49.3194 13.0925C48.906 14.1346 48.7353 15.0792 48.8147 15.9262C48.8945 16.7809 49.194 17.3832 49.7065 17.7569C50.004 18.0003 50.2891 18.1429 50.5688 18.1764C50.8408 18.2103 51.2563 18.175 51.7991 18.0555C52.6591 17.6245 53.2171 17.3404 53.4805 17.1952C53.7439 17.05 53.8466 16.9359 53.7966 16.8602C53.5809 16.7144 53.4896 16.4221 53.5148 15.9839Z" fill="currentColor"/>
<path d="M62.2556 10.1133L62.2722 9.49592C62.3049 9.2134 62.4644 8.9951 62.7579 8.83287C63.0436 8.67101 63.3963 8.61523 63.8006 8.66628C64.2048 8.71732 64.5086 8.92922 64.7042 9.30235C64.8999 9.67548 64.9789 10.0307 64.9414 10.3759C64.904 10.7211 64.7876 11.031 64.608 11.3127L63.3221 13.6449C63.317 13.6998 63.3262 13.7306 63.3651 13.7365C63.4143 13.7966 63.67 13.6518 64.1472 13.2935C64.6244 12.9353 65.3067 12.5048 66.2176 12.0089C67.1286 11.513 67.7714 11.2249 68.1545 11.1598C68.4111 11.1945 68.7069 11.399 69.0339 11.7737C69.3614 12.1561 69.5043 12.5552 69.4478 12.9871C69.0204 14.2171 68.7447 14.9092 68.6131 15.0638C69.0117 14.678 69.6782 14.2405 70.6127 13.7513C71.5471 13.262 72.216 13.0351 72.6268 13.0625C73.2175 13.1359 73.5809 13.462 73.725 14.0483C73.8692 14.6346 73.9199 15.3658 73.8702 16.2579C73.8205 17.15 73.842 17.7577 73.9353 18.0889C73.9409 18.2057 74.0383 18.3025 74.2197 18.3798C74.4088 18.4566 74.5767 18.5735 74.738 18.7141C74.8993 18.8548 74.9641 19.078 74.9244 19.3765C74.8368 20.1221 74.1866 20.4183 72.974 20.2652C72.4376 20.197 72.0118 19.8582 71.6808 19.2418C71.3498 18.6253 71.2312 17.9286 71.3251 17.1515C71.364 16.8374 71.4261 16.5223 71.504 16.2142C71.5895 15.9058 71.6348 15.7241 71.6399 15.6692C71.645 15.6144 71.6204 15.5843 71.566 15.5791C71.0844 15.5239 69.9462 16.2726 68.1367 17.8414C68.0765 17.8755 68.0241 17.9092 67.9804 17.9659C67.8227 18.0593 67.6059 18.21 67.3382 18.4257C66.7264 18.8762 66.3041 19.0914 66.0864 19.0627C65.8687 19.034 65.695 18.9564 65.5807 18.8291L65.304 18.5379C65.0861 18.3453 64.9962 18.0842 65.0275 17.7706L65.0438 17.6293L65.9002 15.8404C66.4795 14.8763 66.7781 14.3393 66.7882 14.2295C66.7984 14.1198 66.7958 14.0653 66.78 14.0582C66.5079 14.0243 65.9379 14.3792 65.0852 15.1221C64.1731 15.9146 63.557 16.4356 63.2449 16.6924C62.9328 16.9491 62.6064 17.23 62.2588 17.5509C61.9107 17.864 61.6225 18.1352 61.3786 18.3654L61.3603 18.3821C61.1281 18.5934 61.008 18.7027 60.9851 18.6962C60.5809 18.6452 60.2389 18.4429 59.9515 18.0897C59.6641 17.7366 59.547 17.3909 59.5848 17.0535C59.6226 16.7161 59.6851 16.4088 59.7798 16.1311C59.8669 15.8538 60.0096 15.449 60.2007 14.9248L60.3245 14.5851C60.4489 14.2433 60.5373 14.0006 60.5898 13.8606C60.6578 13.67 60.7259 13.4795 60.7863 13.2893C60.8081 13.2206 60.8263 13.1612 60.8417 13.1111C60.8689 13.0226 60.8871 12.9632 60.9004 12.9327C60.9136 12.8852 60.9696 12.7655 61.0685 12.5735C61.1674 12.3815 61.281 12.1731 61.4092 11.9485C61.5379 11.7317 61.7445 11.3707 62.0222 10.8814C62.127 10.6501 62.1924 10.405 62.2186 10.1462L62.2556 10.1133Z" fill="currentColor"/>
<path fill-rule="evenodd" clip-rule="evenodd" d="M84.3917 21.6739C84.8914 21.4629 85.2791 21.1713 85.5544 20.7914L85.5624 20.7988C85.8377 20.4189 85.8443 20.0752 85.5896 19.7595C85.3349 19.4438 85.0437 19.3328 84.716 19.4264C84.3879 19.5122 84.1775 19.4754 84.0845 19.3081C83.9914 19.1408 83.9945 18.8831 84.0939 18.5428C84.2038 17.9366 84.4343 17.2701 84.7863 16.5588C84.8954 15.937 84.9722 15.6056 85.0015 15.573C85.0308 15.5404 85.0369 15.345 85.0042 14.9875C84.9715 14.6301 84.9625 14.4432 84.9617 14.4276C84.8486 14.0037 84.6554 13.5212 84.382 12.9801C84.1087 12.4389 83.8429 12.0535 83.5931 11.8391C83.3429 11.6168 82.9962 11.4772 82.5685 11.4195C82.1327 11.3543 81.7657 11.4342 81.4668 11.6435C80.4346 12.0281 79.2905 12.8161 78.0107 13.9929C76.7309 15.1698 75.9895 16.2976 75.7858 17.3609C75.3877 18.2384 75.1688 18.8263 75.1368 19.1244C75.0971 19.4228 75.1588 19.7399 75.3059 20.0685C75.5135 20.2069 75.7567 20.4451 76.0523 20.8057C76.1224 20.818 76.1694 20.8314 76.1698 20.8392C76.1778 20.8466 76.1805 20.9011 76.1611 20.98C76.1417 21.059 76.3166 21.16 76.6702 21.2837C77.0315 21.407 77.3271 21.4476 77.5807 21.4199C78.5532 21.241 79.1308 21.0419 79.298 20.8232C79.3713 20.7417 79.6328 20.5576 80.0752 20.279C80.292 20.1282 80.471 19.9949 80.6272 19.8704L81.7739 19.1369C81.8436 20.1014 82.0165 20.8034 82.2765 21.2281C82.496 21.6157 82.7694 21.8368 83.12 21.8982C83.4706 21.9596 83.8919 21.885 84.3917 21.6739ZM78.804 18.9112C78.0753 19.1799 77.7726 18.9914 77.8883 18.3459L77.8802 18.3385C77.9117 18.1887 78.0925 17.7743 78.4541 17.1015C78.8157 16.4288 79.2743 15.845 79.8538 15.3648C80.9465 14.314 81.7422 13.8313 82.2566 13.9239C82.5012 14.0294 82.6741 14.4114 82.76 15.0707C82.5667 15.5482 82.1301 16.1074 81.4498 16.7407C80.8324 17.3944 80.3234 17.8946 79.9395 18.2641C79.6501 18.512 79.2667 18.7331 78.804 18.9112Z" fill="currentColor"/>
<path d="M96.7022 20.3007L96.392 20.9164C96.3017 20.9675 96.2438 21.0483 96.2105 21.1592C96.1849 21.2696 96.1073 21.4216 96.0011 21.6218C95.8871 21.8223 95.7893 22.0377 95.7 22.2682C95.6107 22.4988 95.5951 22.6557 95.6616 22.754C95.7201 22.8448 95.8449 22.8701 96.0284 22.8302C96.0573 22.8072 96.1063 22.7592 96.1783 22.6888C96.2362 22.6323 96.3088 22.5612 96.3977 22.477C96.5894 22.2884 96.7523 22.1402 96.8711 22.0409C97.0008 21.8474 97.1486 21.7077 97.3145 21.6218C97.4807 21.5437 97.5764 21.4455 97.6096 21.3346C97.6429 21.2238 98.0199 20.8703 98.7629 20.2575C99.6092 19.3822 100.163 18.8486 100.416 18.6492C100.669 18.4499 100.876 18.2528 101.021 18.0586C101.431 17.5864 101.754 17.3916 101.988 17.4507C102.223 17.5176 102.357 17.5736 102.406 17.6259C102.447 17.6786 102.469 17.8103 102.472 18.0209C102.573 18.2034 102.67 18.4485 102.754 18.7489C102.838 19.0493 102.864 19.2666 102.824 19.3934L102.579 19.764C102.501 20.0721 102.257 20.4583 101.863 20.9375C101.366 21.8508 100.973 22.6811 100.67 23.4448C100.367 24.2084 100.273 24.6655 100.382 24.8321C100.447 24.8915 100.516 24.8882 100.598 24.8296C100.68 24.7711 100.791 24.6722 100.939 24.5325C101.087 24.385 101.182 24.2868 101.241 24.2216C101.435 24.0797 101.635 23.9063 101.841 23.6858C102.755 22.9321 103.229 22.5116 103.271 22.4237C103.313 22.3359 103.495 22.1009 103.824 21.7029C104.152 21.3048 104.326 21.0625 104.352 20.9598C104.378 20.8571 104.443 20.7603 104.553 20.6536C104.983 20.2664 105.358 19.874 105.671 19.4767C106.127 18.8462 106.632 18.5803 107.193 18.6863C107.747 18.7927 108.029 19.0291 108.023 19.3961C108.027 19.474 108 19.5533 107.958 19.6412C107.581 20.4708 106.94 21.4456 106.036 22.5733C105.133 23.7011 104.222 24.6809 103.304 25.5128C103.13 25.5835 102.965 25.6928 102.81 25.8406C102.655 25.9885 102.567 26.0941 102.554 26.1493C102.542 26.2046 102.431 26.3113 102.238 26.4687C101.68 26.9167 101.153 27.2149 100.675 27.3781C100.062 27.6569 99.4615 27.5372 98.8652 27.027C98.4518 26.6252 98.2114 26.2854 98.1285 26.0084C98.0456 25.7313 98.1196 25.1815 98.3422 24.3514L98.583 23.2552C98.296 23.3937 97.9153 23.6693 97.4342 24.1058C96.574 25.013 95.7934 25.4871 95.0923 25.5282C94.8765 25.5385 94.464 25.3161 93.8538 24.8378C93.2436 24.3595 92.9257 24.0156 92.9078 23.8057C92.89 23.5958 93.0329 23.0349 93.3443 22.1226C93.6557 21.2103 93.9216 20.6357 94.1347 20.4071L94.2614 20.1513C94.2614 20.1513 94.2576 20.0734 94.24 20.0274C95.6947 17.6716 96.5713 16.3032 96.862 15.9226L97.211 15.1489C97.2571 14.9828 97.3891 14.8361 97.6147 14.7083C98.2284 14.2967 98.7266 14.3745 99.1328 14.9484C99.2928 15.2217 99.3962 15.4432 99.443 15.6126C99.5892 16.0818 99.4 16.6449 98.8685 17.3179C97.7522 18.6821 97.0271 19.6687 96.6864 20.2937L96.7022 20.3007Z" fill="currentColor"/>
<path fill-rule="evenodd" clip-rule="evenodd" d="M107.051 26.4197C107.016 26.5081 106.966 26.6353 106.897 26.8015L106.912 26.8008C106.829 26.9998 106.839 27.3662 106.95 27.8916C107.06 28.4171 107.253 28.8996 107.544 29.3306C107.881 29.7439 108.201 29.9784 108.513 30.0417C109.718 30.1874 110.801 30.0657 111.771 29.6684C112.741 29.2789 113.72 28.5768 114.714 27.5696C116.1 26.1848 116.85 24.76 116.957 23.2954C117.007 22.4112 116.585 21.6586 115.674 21.0384C115.234 20.4037 114.579 20.1149 113.701 20.1722C113.06 20.1948 112.181 20.541 111.046 21.2036C110.286 21.6221 109.478 22.3161 108.613 23.286C108.328 23.6273 108.046 24.0309 107.767 24.4968C107.488 24.9627 107.349 25.2737 107.357 25.4373C107.412 25.6297 107.362 25.718 107.207 25.7097C107.201 25.7244 107.169 25.7469 107.117 25.783L107.103 25.7927C107.035 25.8271 107.047 25.9124 107.123 26.0337C107.114 26.1746 107.104 26.2844 107.069 26.3718L107.051 26.4197ZM114.217 23.8314C113.843 25.0433 113.141 26.0288 112.111 26.7879L112.104 26.7883C110.741 27.852 109.875 28.1585 109.491 27.7163C109.189 27.3794 109.315 26.7881 109.853 25.9353C110.391 25.0824 110.826 24.4842 111.164 24.117C111.501 23.7497 111.941 23.4166 112.49 23.1096C113.242 22.6681 113.819 22.625 114.23 22.9801C114.357 23.0599 114.356 23.3488 114.217 23.8314Z" fill="currentColor"/>
<path d="M121.568 31.9345L121.719 31.5371C121.381 31.9044 121.076 32.1296 120.809 32.2047C120.257 32.4495 119.746 32.5986 119.277 32.6365C117.854 32.9304 116.985 32.5269 116.662 31.4418C116.188 30.5979 116.196 29.7859 116.684 29.0213C117.198 27.8184 118.096 26.5816 119.364 25.3117L119.387 25.2905L119.392 25.2857C120.72 24.0603 121.406 23.4272 121.458 23.3937C121.775 23.3943 122.098 23.5272 122.427 23.7848C122.756 24.0423 122.892 24.2934 122.841 24.5299C122.883 24.7465 122.744 25.0809 122.449 25.5319C122.147 25.9834 121.744 26.4473 121.226 26.909C119.889 28.3539 119.13 29.2641 118.955 29.647C118.78 30.03 118.793 30.3025 118.994 30.4569C119.135 30.6531 119.363 30.7515 119.673 30.7524C119.982 30.7534 120.466 30.543 121.142 30.1363C121.817 29.7296 122.471 29.1757 123.117 28.4816C123.764 27.7953 124.234 27.1407 124.522 26.5339C124.558 26.3293 124.688 26.1358 124.911 25.9613C125.135 25.7868 125.384 25.6735 125.668 25.621C125.78 25.5454 125.901 25.4929 126.032 25.4788C126.17 25.4645 126.249 25.4997 126.276 25.5843L126.7 25.7203C126.7 25.7203 126.783 25.849 126.84 26.057C126.897 26.2728 126.949 26.403 126.983 26.4561C127.306 27.0651 126.783 28.0889 125.401 29.536C123.621 31.2517 122.991 32.6006 123.51 33.5827C123.717 33.885 123.656 34.3796 123.334 35.0739C123.175 35.2922 122.867 35.3224 122.42 35.172C121.972 35.0216 121.652 34.7948 121.468 34.4992C121.313 34.1787 121.296 33.4928 121.415 32.4335C121.417 32.3163 121.462 32.1425 121.552 31.9119L121.568 31.9345Z" fill="currentColor"/>
<path d="M128.071 29.6513C127.665 30.0452 126.817 31.1937 125.518 33.0973L125.502 33.0825C124.961 33.8886 124.571 34.6173 124.325 35.2768C124.079 35.9363 124.173 36.4547 124.594 36.8406C124.818 37.0172 125.052 37.0452 125.293 36.9244C125.534 36.8037 125.762 36.5588 125.969 36.2055L126.034 36.1166C126.316 35.5413 126.763 34.8878 127.369 34.1566C127.633 33.8631 127.787 33.6841 127.822 33.62C127.858 33.5559 127.975 33.4177 128.158 33.2138C128.267 33.0604 128.618 32.6613 129.205 32.0168L129.536 31.5172L130.619 30.0922C130.641 30.0679 130.708 30.0026 130.817 29.8964L130.817 29.8955L130.943 29.7724C131.031 29.6897 131.105 29.6208 131.165 29.5648L131.253 29.4834C131.281 29.4569 131.303 29.4355 131.32 29.4189C131.676 28.9415 132.571 28.1108 133.996 26.9114C135.207 25.9095 135.877 25.3704 136.013 25.3093C136.149 25.2482 136.444 24.9688 136.892 24.4715L136.868 24.457C137.079 24.3455 137.274 24.0631 137.461 23.6172C137.683 23.0993 137.542 22.7314 137.045 22.5209C136.872 22.4511 136.646 22.415 136.376 22.42C136.098 22.4254 135.892 22.482 135.75 22.5824L135.767 22.6206C135.326 22.6103 134.92 22.8247 134.538 23.2487L133.204 24.4125C132.976 24.6653 132.702 24.9046 132.365 25.1236C132.164 25.2814 132.004 25.4919 131.886 25.7707C131.875 25.7833 131.86 25.7983 131.842 25.8167L131.842 25.8175L131.821 25.8385C131.811 25.8488 131.801 25.86 131.789 25.8723C131.772 25.8905 131.753 25.911 131.732 25.9341L131.731 25.935C131.658 26.016 131.607 26.0728 131.578 26.0975C130.886 26.4972 129.941 27.4162 128.729 28.8708C128.532 29.1065 128.313 29.3666 128.071 29.6513Z" fill="currentColor"/>
<path fill-rule="evenodd" clip-rule="evenodd" d="M137.073 41.555C136.889 41.5872 136.735 41.5945 136.611 41.577C136.519 41.5641 136.405 41.5393 136.266 41.5093C136.218 41.4987 136.166 41.4875 136.111 41.4759C135.901 41.4312 135.723 41.2836 135.58 41.0406C135.437 40.7977 135.364 40.5514 135.344 40.3026C135.36 39.8258 135.618 38.9394 136.112 37.6438L134.669 38.1572C133.174 38.7199 131.958 38.8089 131.035 38.4157C130.779 38.2483 130.529 37.8699 130.285 37.2806C130.04 36.6913 129.909 36.2214 129.916 35.8777C129.918 35.2922 130.336 34.4997 131.169 33.5002C132.001 32.5007 132.87 31.7804 133.776 31.3316C134.666 30.7351 135.589 30.4884 136.545 30.5991C137.501 30.7098 138.215 31.0973 138.687 31.7617C139.121 32.2718 139.449 32.3498 139.672 31.9959C139.715 31.9314 140.256 31.2891 141.294 30.0691C142.332 28.8413 143.591 27.5562 145.078 26.19C145.722 25.6131 146.215 25.4102 146.556 25.5969C146.777 25.6879 146.994 25.8649 147.2 26.1282C147.406 26.3916 147.505 26.6835 147.497 27.0116C147.49 27.3398 147.319 27.6445 146.992 27.9098C146.225 28.5003 145.154 29.5345 143.781 31.0202C142.408 32.5059 141.376 33.6944 140.685 34.5779C140.001 35.4611 139.323 36.6249 138.659 38.0691C137.995 39.5133 137.665 40.3641 137.678 40.6366C137.599 40.9291 137.525 41.1434 137.454 41.2872C137.384 41.431 137.257 41.5151 137.073 41.555ZM132.472 36.3338C132.602 36.4603 132.875 36.5254 133.285 36.5449C133.703 36.5563 134.233 36.4843 134.882 36.3208C135.53 36.1573 136.032 35.9774 136.385 35.7811C136.739 35.5848 137.072 35.288 137.401 34.89C137.729 34.492 137.762 34.0378 137.513 33.5267C137.191 32.9488 136.567 32.8223 135.641 33.1629C134.441 33.5867 133.372 34.496 132.442 35.8826C132.327 36.0597 132.334 36.2077 132.464 36.3342L132.472 36.3338Z" fill="currentColor"/>
<path d="M150.283 41.0446L150.642 40.4657L150.658 40.4883C151.047 39.9001 151.86 38.9718 153.09 37.7192C153.678 37.1059 153.914 36.5562 153.814 36.0771C153.783 35.9069 153.694 35.6769 153.564 35.3865C153.21 34.7712 152.718 34.6463 152.07 35.0048C151.829 35.1178 151.68 35.2497 151.626 35.4083L151.206 36.1463C150.883 36.4973 149.887 37.7855 148.232 39.9948C148.249 40.0408 148.238 40.1194 148.238 40.1194L148.087 40.3607C147.85 40.5748 147.537 41.1205 147.146 41.9975C146.756 42.8745 146.558 43.4225 146.561 43.6331C146.571 43.8433 146.852 44.2202 147.418 44.7474C147.984 45.2747 148.376 45.5448 148.592 45.5424C149.289 45.5717 150.111 45.1658 151.045 44.341C151.559 43.9575 151.965 43.712 152.261 43.6042L151.926 44.6738C151.625 45.4841 151.505 46.0284 151.564 46.3065C151.624 46.5846 151.835 46.9492 152.211 47.384C152.756 47.9513 153.351 48.1181 153.982 47.8931C154.478 47.7758 155.022 47.5236 155.622 47.1284C155.831 46.9857 155.942 46.8946 155.963 46.839C155.983 46.7834 156.071 46.6855 156.243 46.5525C156.414 46.4195 156.587 46.3255 156.762 46.2703C157.746 45.5212 158.746 44.623 159.746 43.5843C160.754 42.5374 161.475 41.629 161.924 40.8351C161.974 40.7547 162.001 40.6753 162.013 40.5967C162.049 40.2282 161.797 39.967 161.249 39.8135C160.701 39.6601 160.178 39.8722 159.665 40.4585C159.312 40.8187 158.904 41.1814 158.442 41.5234C158.323 41.6227 158.25 41.7198 158.216 41.8151C158.182 41.9103 157.985 42.146 157.624 42.5066C157.263 42.8749 157.057 43.0954 157.007 43.1759C156.957 43.2563 156.45 43.6316 155.47 44.3025C155.24 44.5007 155.023 44.6515 154.821 44.7782C154.777 44.8205 154.705 44.881 154.608 44.9628C154.573 44.9921 154.535 45.0241 154.494 45.0591C154.338 45.1913 154.211 45.2754 154.129 45.3262C154.038 45.3773 153.968 45.365 153.911 45.3053C153.818 45.138 153.951 44.679 154.317 43.9514C154.684 43.216 155.155 42.4209 155.724 41.5588C156.159 41.1245 156.435 40.7602 156.544 40.4585L156.821 40.1097C156.861 39.9907 156.858 39.7723 156.805 39.4627C156.751 39.153 156.677 38.899 156.591 38.708C156.604 38.4967 156.597 38.3565 156.556 38.3038C156.515 38.2511 156.388 38.1791 156.16 38.0963C155.932 38.0135 155.592 38.1857 155.142 38.613C154.98 38.7845 154.765 38.9664 154.487 39.1435C154.21 39.3206 153.615 39.8015 152.695 40.5944C151.903 41.1394 151.493 41.4632 151.452 41.5666C151.418 41.6697 151.314 41.7605 151.14 41.8234C150.973 41.886 150.809 42.0108 150.663 42.1972C150.529 42.2895 150.357 42.4147 150.149 42.5885C149.99 42.7218 149.873 42.8118 149.804 42.8651L149.803 42.8662L149.802 42.8669L149.773 42.8891L149.755 42.9038C149.563 42.9285 149.445 42.8951 149.394 42.796C149.343 42.697 149.366 42.532 149.479 42.3159C149.585 42.1002 149.706 41.8993 149.836 41.7058C149.966 41.5201 150.052 41.3678 150.085 41.2647C150.119 41.1617 150.185 41.0883 150.283 41.0446Z" fill="currentColor"/>
<path fill-rule="evenodd" clip-rule="evenodd" d="M169.828 50.7693C169.496 51.0972 169.074 51.328 168.548 51.4623C168.021 51.5965 167.589 51.6015 167.259 51.4845C166.929 51.3675 166.684 51.1059 166.533 50.6917C166.34 50.2247 166.283 49.5172 166.353 48.554L165.104 49.0972C164.931 49.199 164.728 49.3023 164.494 49.4149C164.009 49.6252 163.73 49.7634 163.648 49.8297C163.449 50.0187 162.851 50.1251 161.863 50.1486C161.608 50.1373 161.318 50.0497 160.985 49.8704C160.652 49.6911 160.499 49.5656 160.526 49.4863C160.553 49.407 160.566 49.3595 160.558 49.3521C160.55 49.3447 160.518 49.3228 160.447 49.2949C160.211 48.8925 160.005 48.6135 159.827 48.4503C159.733 48.0958 159.725 47.7761 159.804 47.4914C159.883 47.1989 160.188 46.6537 160.722 45.8557C161.09 44.8392 161.992 43.8442 163.437 42.878C164.881 41.9119 166.135 41.3138 167.206 41.0991C167.538 40.935 167.908 40.9174 168.324 41.046C168.74 41.1745 169.058 41.3623 169.279 41.6172C169.492 41.8724 169.697 42.2919 169.88 42.8686C170.062 43.4453 170.179 43.9548 170.223 44.3898C170.224 44.3945 170.222 44.4154 170.218 44.4524C170.211 44.5366 170.196 44.7039 170.181 44.9537C170.16 45.3137 170.123 45.5028 170.085 45.528C170.048 45.5532 169.924 45.8712 169.721 46.4662C169.266 47.12 168.932 47.7368 168.736 48.3159C168.59 48.6428 168.54 48.8949 168.61 49.0711C168.673 49.2554 168.877 49.3238 169.215 49.2843C169.554 49.2448 169.823 49.3959 170.026 49.7453C170.228 50.0947 170.167 50.4332 169.835 50.7611L169.828 50.7693ZM162.623 47.1546C162.413 47.7733 162.688 48.01 163.437 47.8574C163.926 47.7483 164.329 47.5965 164.659 47.3935C165.092 47.0919 165.674 46.6662 166.39 46.1327C167.161 45.6123 167.679 45.1272 167.943 44.6932C167.958 44.0291 167.853 43.6204 167.622 43.4831C167.135 43.3111 166.263 43.6569 165.031 44.5272C164.385 44.9168 163.837 45.4189 163.38 46.026C162.923 46.6409 162.67 47.0119 162.623 47.1546Z" fill="currentColor"/>
<path d="M175.795 49.0888C174.815 49.5881 174.293 49.8314 174.293 49.8314L174.301 49.8232C174.315 49.7914 174.454 49.6287 174.734 49.35C175.006 49.0639 175.184 48.9072 175.252 48.8727C175.855 48.0948 176.295 47.5979 176.579 47.3971C177.288 46.8873 177.754 46.2954 177.977 45.6215C178.006 45.2766 177.906 44.9614 177.66 44.6609C177.414 44.3604 177.227 44.182 177.093 44.1181C176.951 44.0546 176.817 43.9986 176.675 43.9506C176.23 44.1747 175.652 44.6783 174.948 45.4687C174.611 45.8515 174.361 46.1132 174.198 46.2536C172.479 48.0991 171.472 49.4737 171.183 50.3849C170.895 51.2962 170.807 51.8779 170.936 52.1371C170.979 52.2287 171.118 52.386 171.337 52.6098C171.556 52.8335 171.702 52.9593 171.772 52.9793C172.259 53.1435 173.398 52.7382 175.19 51.7711C176.975 50.8045 177.942 50.3449 178.083 50.3928C178.122 50.4066 178.104 50.5089 178.044 50.7068L177.66 51.8802C177.471 52.4433 177.385 53.0717 177.402 53.7421C177.529 54.6102 177.895 55.1469 178.492 55.3449C179.041 55.5295 179.735 55.3327 180.572 54.7544C181.418 54.1835 181.941 53.6514 182.157 53.1728C181.649 53.0565 181.114 53.0116 180.543 53.0154C180.257 53.0211 179.963 53.0117 179.676 52.9941L180.167 51.4723C180.368 50.9867 180.484 50.6846 180.518 50.5815C180.707 50.0106 180.712 49.4719 180.548 48.9645C180.385 48.4572 180.106 48.1348 179.722 48.0048C178.947 47.7919 177.643 48.1504 175.795 49.0888Z" fill="currentColor"/>
<path d="M185.7 47.7989C185.655 47.6684 185.649 47.5438 185.682 47.4251C185.715 47.3065 185.854 47.1438 186.09 46.9219C186.327 46.6999 186.493 46.614 186.611 46.663C186.722 46.7124 186.988 46.7934 187.403 46.9141C187.819 47.0349 188.108 47.0992 188.27 47.0915C188.431 47.0838 188.566 46.9994 188.698 46.8448C188.829 46.6747 189.109 46.3961 189.539 46.0244C190.533 45.0094 191.186 44.4477 191.497 44.3237C191.808 44.2074 192.131 44.1843 192.467 44.2542C192.803 44.3241 193.089 44.5056 193.335 44.7983C193.481 45.2596 193.376 45.6392 193.011 45.9297C192.835 46.1098 192.583 46.3325 192.248 46.5982C191.913 46.8638 191.661 47.0787 191.491 47.2429C191.059 47.5756 190.938 47.7921 191.144 47.8993C191.342 47.9992 191.881 48.1219 192.752 48.2522C193.624 48.3825 193.994 48.841 193.869 49.6274C193.791 50.076 193.663 50.3162 193.495 50.3631C193.328 50.4101 192.906 50.3209 192.231 50.1032C191.64 50.0142 191.085 49.8923 190.583 49.7366C190.074 49.5813 189.769 49.5099 189.645 49.508C189.421 49.4953 189.194 49.6075 188.982 49.8517C188.921 49.8702 188.824 49.9451 188.707 50.0833C188.538 50.263 188.184 50.6154 187.653 51.1246C186.769 52.3373 185.981 53.6234 185.281 54.9834C185.12 55.3267 185.055 55.5795 185.102 55.749C185.149 55.9184 185.398 56.1096 185.856 56.3141C186.676 56.6732 187.683 56.7112 188.882 56.4279L189.73 56.2316C189.922 56.0585 190.078 56.2384 190.204 56.7632C190.241 56.8941 190.262 57.0179 190.26 57.1351C190.039 57.8324 189.496 58.2719 188.617 58.4619C187.747 58.6905 186.892 58.7468 186.06 58.6302C185.22 58.5062 184.617 58.3397 184.236 58.1315C183.855 57.9233 183.551 57.5553 183.318 57.0434C183.092 56.5312 182.98 56.1151 182.98 55.8029L182.914 55.5485C182.838 55.4272 182.947 54.9538 183.24 54.136C183.532 53.3183 183.776 52.7526 183.969 52.4468C184.205 52.0532 184.792 51.2448 185.715 50.0303L186.918 48.7088L185.953 48.0757C185.834 48.0189 185.752 47.9213 185.707 47.7908L185.7 47.7989Z" fill="currentColor"/>
<path d="M200.826 61.6985C200.904 61.726 201.142 61.6913 201.539 61.5944L201.562 61.5855C201.951 61.489 202.241 61.3972 202.429 61.2946C201.726 62.4284 201.185 63.2268 200.821 63.6811C200.513 64.1952 200.037 64.7252 199.391 65.2709C198.828 65.7815 198.351 66.1398 197.959 66.3302C197.558 66.5209 197.025 66.6711 196.358 66.7808C195.962 66.7372 195.669 66.7511 195.472 66.8307C195.275 66.9025 195.027 66.8987 194.737 66.811C194.447 66.7233 194.249 66.6234 194.143 66.5114C193.03 66.174 192.542 66.4704 192.688 67.4156C192.71 67.5473 192.86 67.7821 193.14 68.1434C193.4 68.3964 193.561 68.5448 193.648 68.5875C193.728 68.6384 194.002 68.7112 194.455 68.8068C195.612 69.0874 196.858 68.9736 198.194 68.4809C199.53 67.9882 200.836 67.0442 202.121 65.6563C202.664 65.0608 203.028 64.5987 203.191 64.2943C203.354 63.99 203.694 63.4978 204.203 62.8337C204.856 61.4837 205.357 60.4999 205.721 59.8661C206.463 58.2777 207.058 57.3129 207.505 56.9795C207.81 56.7231 208.047 56.3606 208.202 55.8927C208.357 55.4249 208.399 55.0015 208.319 54.6228C208.247 54.4077 208.097 54.1963 207.879 53.996C207.661 53.7956 207.445 53.6575 207.242 53.597C207.038 53.5442 206.906 53.5193 206.846 53.5534C206.785 53.5874 206.668 53.7101 206.485 53.9295C206.189 54.5211 205.726 55.3391 205.089 56.3762C204.451 57.4133 203.995 58.1998 203.72 58.7436C202.492 59.5668 201.408 59.829 200.467 59.5459C200.356 59.3326 200.618 58.6646 201.266 57.5334C201.522 57.0608 201.71 56.7943 201.823 56.7343C201.916 56.7533 202.097 56.5027 202.372 55.9589C202.486 55.7584 202.558 55.6457 202.572 55.6216C202.587 55.5975 202.638 55.5327 202.726 55.4349C202.777 55.3774 202.834 55.3089 202.897 55.2326L202.897 55.2319L202.899 55.2303L202.954 55.1638C202.981 55.1306 203.01 55.0963 203.04 55.0609L203.093 54.9983L203.135 54.9485C203.252 54.8102 203.404 54.6297 203.596 54.4101C203.845 54.1252 203.995 53.8761 204.047 53.6707C204.098 53.4575 204.07 53.1935 203.954 52.8634C203.838 52.5412 203.58 52.3271 203.167 52.2452C202.753 52.1634 202.439 52.2018 202.215 52.3685C201.829 52.699 201.093 53.6159 200.022 55.1184C198.951 56.621 198.186 57.7421 197.735 58.4816C197.486 58.9382 197.544 59.4974 197.901 60.175C198.053 60.441 198.148 60.6472 198.179 60.8018C198.21 60.9565 198.297 61.1631 198.441 61.4216C198.584 61.6801 198.738 61.8289 198.887 61.8764C199.036 61.9162 199.361 61.932 199.871 61.9234C200.38 61.9148 200.641 61.8634 200.668 61.7841C200.695 61.7048 200.747 61.671 200.826 61.6985Z" fill="currentColor"/>
<path fill-rule="evenodd" clip-rule="evenodd" d="M207.194 62.7148C207.269 62.5161 207.324 62.3653 207.35 62.2781C207.377 62.191 207.387 62.0735 207.388 61.9407C207.305 61.8198 207.294 61.7423 207.353 61.7005C207.413 61.6586 207.443 61.6338 207.449 61.61C207.604 61.6183 207.646 61.5227 207.59 61.3302C207.583 61.1667 207.706 60.8486 207.969 60.3756C208.232 59.8949 208.498 59.4842 208.775 59.1355C209.6 58.1363 210.391 57.4119 211.135 56.9707C212.244 56.2625 213.115 55.8933 213.746 55.8399C214.622 55.7437 215.292 56.0162 215.747 56.6346C216.679 57.2225 217.132 57.9581 217.105 58.849C217.052 60.311 216.349 61.7648 215.013 63.2019C214.059 64.2462 213.105 64.9783 212.152 65.4138C211.2 65.8415 210.118 66.0099 208.916 65.9031C208.604 65.8477 208.269 65.6295 207.925 65.2322C207.619 64.8097 207.403 64.336 207.277 63.8113C207.152 63.2866 207.126 62.9209 207.202 62.7223L207.194 62.7148ZM212.407 62.514C213.404 61.7174 214.073 60.71 214.408 59.4844C214.532 58.9947 214.526 58.714 214.391 58.6346C213.965 58.2958 213.388 58.3544 212.662 58.826C212.121 59.156 211.698 59.5039 211.376 59.8782C211.054 60.2525 210.643 60.873 210.129 61.7481C209.615 62.6232 209.52 63.2209 209.829 63.5418C210.229 63.9677 211.085 63.6304 212.407 62.5218L212.407 62.514Z" fill="currentColor"/>
<path d="M222.311 66.4924L222.199 66.8958L222.199 66.9114C222.133 67.1408 222.103 67.3218 222.109 67.4386C222.083 68.5012 222.162 69.1843 222.347 69.4877C222.561 69.7663 222.895 69.9611 223.356 70.0719C223.818 70.1905 224.116 70.1295 224.259 69.8963C224.518 69.1738 224.533 68.6736 224.303 68.3958C223.694 67.4647 224.206 66.059 225.823 64.1949C227.069 62.6295 227.504 61.5552 227.129 60.9799C227.087 60.9272 227.027 60.7974 226.948 60.5904C226.868 60.3835 226.777 60.2629 226.777 60.2629L226.34 60.1666C226.305 60.0747 226.218 60.0475 226.088 60.0771C225.951 60.1071 225.837 60.1593 225.734 60.2501C225.459 60.3333 225.219 60.4696 225.012 60.659C224.804 60.8483 224.69 61.0489 224.67 61.2606C224.437 61.8882 224.023 62.5791 223.44 63.3247C222.851 64.0708 222.246 64.677 221.612 65.1442C220.978 65.6114 220.511 65.8599 220.203 65.8901C219.896 65.9203 219.668 65.8375 219.505 65.6579C219.289 65.5199 219.253 65.2485 219.396 64.8514C219.539 64.4544 220.21 63.4704 221.418 61.9145C221.888 61.4083 222.25 60.915 222.513 60.4343C222.776 59.9535 222.875 59.6054 222.818 59.3973C222.845 59.1541 222.688 58.9275 222.336 58.6944C221.985 58.4614 221.656 58.3677 221.341 58.3905C221.289 58.4398 220.65 59.1335 219.426 60.4951C218.272 61.8767 217.485 63.1862 217.081 64.4307C216.657 65.2469 216.719 66.0478 217.267 66.8491C217.689 67.9061 218.593 68.2221 219.979 67.8051C220.447 67.7283 220.94 67.5409 221.466 67.2428C221.724 67.1369 222.005 66.8894 222.311 66.4924Z" fill="currentColor"/>
<path d="M242.963 62.1945C242.917 62.3761 243.024 62.5037 243.29 62.5769C243.891 62.7045 244.281 62.7718 244.475 62.786C244.661 62.8006 244.785 62.8103 244.84 62.8311C245.01 62.8386 245.168 62.9014 245.305 63.0198C245.4 63.2415 245.354 63.5559 245.173 63.9704C244.992 64.3848 244.802 64.6046 244.61 64.6293C244.607 64.6294 244.596 64.6293 244.578 64.6291C244.504 64.6284 244.309 64.6264 244 64.6349C243.69 64.6261 242.858 64.5018 241.478 64.2551C240.766 65.0304 240.355 65.487 240.224 65.6415C240.1 65.7879 240.027 65.885 240.021 65.9165L238.251 67.9829C238.18 67.9629 238.128 68.0044 238.103 68.1149C238.114 68.3485 238.067 68.4912 237.961 68.543C237.788 68.6293 237.623 68.7386 237.467 68.8709C237.534 68.9848 237.428 69.1771 237.163 69.4551C237.077 69.7635 236.827 70.189 236.413 70.7316C236.344 71.0627 236.308 71.2751 236.297 71.3693C236.294 71.4631 236.327 71.5161 236.404 71.5125C236.468 71.5485 236.718 71.6068 237.139 71.6883C237.438 71.6351 237.142 72.2345 236.252 73.4787C235.874 73.8166 235.494 74.1078 235.111 74.3367C234.728 74.5656 234.494 74.6782 234.408 74.6511C232.911 74.2149 232.515 73.1957 233.217 71.5858C233.318 71.4405 233.41 71.2489 233.515 71.0254C233.755 70.5535 233.935 70.2874 234.041 70.2433C234.138 70.1763 234.157 70.0895 234.106 69.9983C234.172 69.761 234.473 69.2784 235.017 68.5346C234.947 68.3584 235.033 68.2139 235.282 68.1005C235.524 67.9876 235.626 67.8735 235.59 67.7659C235.554 67.6584 235.632 67.4986 235.822 67.2788C236.012 67.0591 236.24 66.8141 236.497 66.5366C236.754 66.259 236.915 66.0718 236.98 65.9751C236.977 65.9128 237.224 65.5889 237.72 64.9878C238.216 64.3867 238.531 64.0205 238.663 63.8816C238.824 63.8505 238.782 63.7745 238.537 63.6612C238.292 63.548 237.782 63.3771 237.014 63.1638C236.247 62.9505 235.717 62.6947 235.432 62.4039C235.279 62.1146 235.334 61.8076 235.597 61.4907C235.852 61.1742 236.194 61.0643 236.609 61.1617L240.117 61.8145L240.32 61.3756C240.364 61.3365 240.406 61.2989 240.447 61.2622C240.501 61.2138 240.554 61.167 240.609 61.12C240.647 61.0845 240.68 61.055 240.706 61.0311C240.742 60.9995 240.766 60.9775 240.779 60.9636C240.801 60.9392 240.83 60.9065 240.866 60.858C240.925 60.7928 241.002 60.633 241.113 60.3702C241.55 59.967 241.854 59.5545 242.02 59.1408C242.479 58.7288 242.796 58.4094 242.97 58.1825C243.812 57.2138 244.54 57.0856 245.177 57.8046C245.619 58.3143 245.762 58.7211 245.622 59.0321C245.554 59.2071 245.446 59.3761 245.283 59.5321C245.129 59.6878 244.918 59.9709 244.659 60.3579C244.159 60.725 243.793 61.1482 243.569 61.6271C243.223 61.9948 243.016 62.1841 242.955 62.187L242.963 62.1945Z" fill="currentColor"/>
<path fill-rule="evenodd" clip-rule="evenodd" d="M251.938 68.0898C251.66 67.9391 251.441 67.8793 251.28 67.9103C251.1 68.0125 250.691 68.0319 250.062 67.9526C249.425 67.8814 249.058 67.7974 248.945 67.709C248.991 67.543 249.112 67.4904 249.308 67.5435C249.739 67.5074 249.894 67.1879 249.764 66.5931C249.702 66.2682 249.466 66.0219 249.072 65.8533C248.678 65.6848 248.273 65.6337 247.875 65.6995C246.671 65.8971 245.448 66.6342 244.219 67.9179C242.983 69.2019 242.127 70.507 241.635 71.8493C241.524 72.1121 241.559 72.5163 241.74 73.0696C241.914 73.6233 242.182 74.0554 242.545 74.366C242.954 74.9944 243.385 75.2939 243.832 75.2648C244.641 75.3903 245.614 75.2114 246.75 74.7282C247.885 74.245 248.851 73.6138 249.641 72.8426C250.43 72.0715 250.783 71.368 250.699 70.7476C250.692 70.6152 250.711 70.5129 250.746 70.4565C250.782 70.4002 251.063 70.2854 251.588 70.12C251.884 70.0045 252.145 69.8282 252.358 69.5995C252.571 69.3709 252.595 69.2215 252.422 69.1516C252.374 69.1305 252.332 69.0467 252.309 68.8839C252.278 68.7214 252.287 68.5883 252.312 68.4779C252.338 68.3752 252.216 68.2405 251.938 68.0898ZM247.749 69.5063L248.236 69.4988C248.277 69.5515 248.333 69.5956 248.413 69.6465C248.493 69.6973 248.541 69.7418 248.581 69.7789C248.614 69.8164 248.635 69.9247 248.628 70.0967C248.621 70.2688 248.529 70.4604 248.37 70.6787C248.21 70.897 247.898 71.1538 247.434 71.4568C246.905 71.8566 246.579 72.1452 246.456 72.3227C246.398 72.4035 246.339 72.4687 246.288 72.5258C246.236 72.5751 246.2 72.6159 246.177 72.6248C246.154 72.6414 246.093 72.6444 246 72.6487C245.9 72.6535 245.703 72.7409 245.41 72.9109C244.921 73.0122 244.605 73.035 244.456 72.9875C244.307 72.9399 244.202 72.8512 244.126 72.7222C244.051 72.5931 244.092 72.3258 244.235 71.9209C244.377 71.5161 244.685 71.002 245.149 70.3712C245.613 69.7404 246.108 69.2798 246.627 68.9743L247.205 68.6346L247.492 69.2922C247.59 69.4124 247.679 69.4862 247.749 69.5063Z" fill="currentColor"/>
<path d="M265.594 77.9541L266.299 75.907C266.403 75.5118 266.354 75.28 266.158 75.2269C265.798 75.1347 265.095 75.293 264.034 75.718C262.973 76.1431 261.851 76.7583 260.669 77.5636C259.876 78.2647 259.217 78.5379 258.701 78.3986C258.393 78.2571 258.141 77.9959 257.953 77.6224C257.764 77.2412 257.722 76.8451 257.833 76.4262C257.944 76.0073 258.497 74.982 259.499 73.3267C259.664 72.9052 259.929 72.4634 260.293 72.0012C260.649 71.5394 260.967 71.0795 261.223 70.6225C261.487 70.1729 262.063 69.287 262.965 67.9642L263.477 67.2111C264.106 66.2866 264.569 65.606 264.862 65.1815C265.231 64.6489 265.497 64.246 265.655 64.0044C265.917 63.6641 266.141 63.3413 266.342 63.0274C266.382 62.885 266.523 62.7691 266.759 62.6876C267.002 62.6058 267.225 62.5952 267.445 62.655C267.656 62.7152 267.854 62.9634 268.022 63.4159C268.314 64.1902 268.231 64.8654 267.756 65.4343C267.282 66.0031 266.429 67.2299 265.198 69.0991C263.967 70.976 263.164 72.1068 262.797 72.4911L262.343 73.0121L261.482 74.5515C261.469 74.6067 261.471 74.6379 261.486 74.6371C262.523 74.026 263.42 73.5697 264.17 73.2609C264.921 72.9599 265.337 72.7762 265.418 72.7099C265.5 72.6436 265.795 72.5125 266.303 72.3089C266.803 72.1056 267.39 72.0934 268.055 72.2647C268.376 72.3509 268.677 72.6722 268.951 73.2289C269.225 73.7856 269.291 74.36 269.135 74.9606L269.031 75.3636C268.92 75.7825 268.479 76.7478 267.702 78.2598C267.789 78.2869 267.929 78.3037 268.122 78.3101C268.482 78.4022 268.736 78.554 268.885 78.7577C269.034 78.9613 269.117 79.0667 269.132 79.0738C269.158 79.1194 269.161 79.1817 269.141 79.2529C269.03 79.6718 268.712 79.9678 268.188 80.1566C267.656 80.3458 267.188 80.3993 266.767 80.3256C266.266 80.1933 265.912 79.8979 265.704 79.4317C265.496 78.9733 265.464 78.4675 265.608 77.93L265.594 77.9541Z" fill="currentColor"/>
<path fill-rule="evenodd" clip-rule="evenodd" d="M278.806 74.2982C278.459 73.9947 278.243 73.8332 278.157 73.8061L278.179 73.7895C278.085 73.7705 277.817 73.8066 277.373 73.898C276.276 74.0671 275.18 74.5563 274.083 75.3576C272.978 76.1593 272.108 77.0279 271.45 77.9645C270.792 78.9011 270.445 79.7059 270.407 80.3711C270.394 80.7307 270.546 81.1683 270.872 81.6836C271.198 82.1988 271.52 82.4567 271.845 82.4647C272.134 82.5368 272.552 82.5559 273.098 82.5066C273.645 82.4572 273.934 82.3732 273.967 82.2468L274.233 82.32C274.343 82.3538 274.486 82.2923 274.681 82.1504L275.536 81.6259L276.448 81.3172L276.509 81.6265C276.514 82.196 276.814 82.8217 277.397 83.5199C277.61 83.7907 277.968 83.9923 278.461 84.1249C278.954 84.2498 279.387 84.2604 279.76 84.1491L279.878 84.0867C280.045 83.9983 280.172 83.9308 280.264 83.8754C280.283 83.7886 280.47 83.6471 280.808 83.4437C281.116 83.1169 281.324 82.7792 281.415 82.4159C281.453 82.2502 281.441 82.1493 281.377 82.1133C281.283 82.0866 281.21 82.0198 281.143 81.9059C281.17 81.8188 281.081 81.7372 280.876 81.661C280.679 81.5845 280.403 81.6211 280.062 81.7621C279.144 82.274 278.655 82.0631 278.587 81.1376C278.579 80.6385 278.848 79.9701 279.388 79.1484C279.52 79.0094 279.592 78.8968 279.618 78.8019C279.593 78.7562 279.584 78.7255 279.598 78.7092C279.605 78.6932 279.672 78.6432 279.792 78.5595C280.025 78.4235 280.122 78.0287 280.105 77.3661C280.179 76.6524 280.157 76.0291 280.046 75.4958C279.871 75.0671 279.457 74.6653 278.806 74.2982ZM277.706 76.325C277.809 76.3747 277.87 76.5045 277.888 76.7222L277.88 76.7226C277.969 77.1164 277.93 77.4382 277.764 77.6802C277.591 77.9304 277.347 78.1605 277.025 78.3709C276.703 78.5891 276.449 78.7729 276.264 78.9378C276.079 79.1027 275.9 79.2438 275.736 79.3609C275.572 79.478 275.118 79.6946 274.383 79.9871C273.64 80.2799 273.175 80.4035 272.979 80.3504L272.918 80.0411C273.035 79.5907 273.597 78.9006 274.588 77.9872C275.587 77.0734 276.387 76.5203 276.988 76.3357C277.364 76.2788 277.604 76.2752 277.706 76.325Z" fill="currentColor"/>
<path d="M291.744 78.8735C291.885 79.0697 291.939 79.231 291.899 79.3656C291.867 79.4998 291.653 79.869 291.264 80.4572C290.875 81.0532 290.612 81.3545 290.474 81.3766L290.136 81.5722C290.023 81.7961 289.521 82.2804 288.63 83.0252C287.746 83.7695 286.995 84.3827 286.4 84.8481C285.796 85.3138 285.254 85.5971 284.764 85.6984C284.188 85.9287 283.749 85.7857 283.445 85.2538C282.815 84.2145 282.908 82.1418 283.724 79.0281C284.072 78.075 284.386 77.0455 284.68 75.9467C285.17 75.8454 285.672 76.0088 286.187 76.437C286.399 76.6533 286.491 76.9611 286.464 77.3682C286.43 77.7757 286.233 78.6747 285.868 80.0657C285.354 81.5886 285.107 82.3964 285.134 82.4809C285.162 82.5655 285.173 82.643 285.177 82.7131C285.18 82.7832 285.249 82.7721 285.399 82.6869C285.55 82.6017 285.67 82.5258 285.766 82.4509C285.864 82.3839 286.07 82.179 286.386 81.8362C286.806 81.4104 287.213 81.0398 287.607 80.7323C288.002 80.4248 288.233 80.2422 288.284 80.1851C288.335 80.128 288.455 80.0365 288.641 79.9028C288.828 79.769 289.006 79.6123 289.183 79.44C289.36 79.2677 289.575 79.0857 289.853 78.9087C290.13 78.7316 290.304 78.6531 290.374 78.6732C290.416 78.7258 290.563 78.7422 290.818 78.7379C290.853 78.7373 290.886 78.7366 290.917 78.7357C290.947 78.7348 290.976 78.7339 291.001 78.7329L291.05 78.7311C291.154 78.7272 291.209 78.7251 291.219 78.7345C291.377 78.6411 291.549 78.6876 291.728 78.8742L291.744 78.8735Z" fill="currentColor"/>
<path fill-rule="evenodd" clip-rule="evenodd" d="M300.588 80.1236C300.248 79.4764 299.545 79.0025 298.496 78.7089L298.503 78.7008C298.018 78.5677 297.4 78.5659 296.633 78.6881C295.866 78.8104 295.081 79.1833 294.277 79.8147C293.473 80.446 292.846 81.0689 292.389 81.676C291.931 82.2831 291.617 82.8209 291.446 83.2739C291.267 83.735 291.126 84.171 291.014 84.5821C290.718 85.6498 290.808 86.5587 291.277 87.309C291.746 88.0672 292.474 88.579 293.453 88.8525C294.432 89.126 295.409 89.0327 296.368 88.5735C297.327 88.1143 297.893 87.6816 298.059 87.2835C298.096 87.0788 298.03 86.84 297.878 86.5663C297.718 86.2929 297.532 86.1222 297.32 86.062C297.109 86.0018 296.757 86.081 296.289 86.2983C295.82 86.5157 295.425 86.6438 295.103 86.6903C294.78 86.7368 294.463 86.7207 294.141 86.6267C293.82 86.5327 293.572 86.3571 293.405 86.0997C293.238 85.8345 293.196 85.4463 293.279 84.9272C293.431 84.3893 293.592 84.0382 293.769 83.8737C293.896 83.7741 294.01 83.7296 294.119 83.7634C294.229 83.7973 294.505 83.9168 294.956 84.1295C295.407 84.3423 295.894 84.5142 296.417 84.6377C296.933 84.7614 297.503 84.7266 298.119 84.5178C298.735 84.3091 299.223 84.0205 299.599 83.6359C300.329 82.9144 300.75 82.3636 300.855 81.984L300.915 81.7705C301.04 81.3197 300.928 80.7708 300.588 80.1236ZM296.61 80.9292C297.153 80.6614 297.535 80.5652 297.77 80.6321L297.77 80.6399L298.067 80.7194C298.618 80.9274 298.849 81.2364 298.737 81.632C298.674 81.7676 298.414 81.9751 297.947 82.2392C297.481 82.5033 297.164 82.6589 296.988 82.6984C296.813 82.738 296.454 82.677 295.898 82.5239C295.35 82.3704 295.086 82.18 295.106 81.9527C295.565 81.5329 296.066 81.1969 296.61 80.9292Z" fill="currentColor"/>
<path fill-rule="evenodd" clip-rule="evenodd" d="M315.864 86.8824C316.026 86.8747 316.238 86.9583 316.494 87.1413C316.75 87.3242 316.858 87.4752 316.817 87.5786C316.775 87.682 316.759 87.8155 316.759 87.9794C316.759 88.1433 316.794 88.2353 316.842 88.2564C317.008 88.3422 316.969 88.4923 316.723 88.6913C316.478 88.898 316.207 89.0358 315.894 89.1053C315.35 89.2092 315.06 89.2854 315.024 89.334C314.98 89.3907 314.954 89.4856 314.937 89.619C314.944 90.2509 314.512 90.8958 313.632 91.5619C312.753 92.2281 311.719 92.7299 310.538 93.0747C309.349 93.4122 308.363 93.4746 307.572 93.2468C307.122 93.2214 306.735 92.873 306.408 92.1938C306.09 91.8421 305.874 91.3763 305.762 90.8119C305.65 90.2397 305.669 89.833 305.804 89.5846C306.453 88.3206 307.47 87.1251 308.845 86.0061C310.228 84.8868 311.521 84.3103 312.74 84.2602C313.148 84.2408 313.532 84.3474 313.913 84.5635C314.294 84.7795 314.485 85.0514 314.509 85.3859C314.561 85.9921 314.375 86.2898 313.941 86.2713C313.752 86.1945 313.623 86.2319 313.561 86.3909C313.659 86.4955 314.02 86.6188 314.638 86.7768C315.255 86.9269 315.659 86.9702 315.856 86.8828L315.864 86.8824ZM312.661 88.0726L312.172 88.0256C312.101 87.9977 312.027 87.9154 311.944 87.7789L311.74 87.0861L311.127 87.3494C310.574 87.5864 310.03 87.9868 309.485 88.5512C308.941 89.1156 308.585 89.593 308.387 89.977C308.19 90.361 308.125 90.6216 308.178 90.7518C308.23 90.882 308.336 90.9862 308.478 91.0575C308.621 91.1288 308.938 91.1371 309.438 91.1055C309.749 90.9737 309.954 90.9094 310.055 90.9202C310.149 90.9313 310.21 90.9284 310.233 90.9117C310.255 90.9028 310.3 90.8695 310.36 90.8276C310.42 90.7858 310.486 90.7202 310.552 90.6468C310.699 90.4838 311.058 90.2404 311.629 89.9089C312.127 89.6667 312.464 89.4477 312.656 89.2591C312.848 89.0627 312.955 88.8781 312.985 88.7128C313.015 88.5396 313.011 88.4384 312.977 88.3931C312.944 88.3479 312.896 88.2956 312.831 88.244C312.767 88.1846 312.71 88.1327 312.676 88.0719L312.661 88.0726Z" fill="currentColor"/>
<path d="M318.558 93.5351C318.634 93.5152 319.177 93.3713 320.157 93.0864C322.145 92.5003 323.492 92.3895 324.212 92.7377C324.569 92.9393 324.787 93.2958 324.86 93.8308C324.931 94.3581 324.825 94.8861 324.542 95.4147C324.492 95.5107 324.32 95.7842 324.04 96.2267L323.281 97.6286C323.563 97.7011 323.844 97.758 324.132 97.8145C324.693 97.9127 325.21 98.0599 325.699 98.263C325.403 98.6985 324.79 99.1179 323.859 99.5289C322.929 99.9399 322.214 100.005 321.706 99.7248C321.15 99.4156 320.89 98.827 320.925 97.9513C321.032 97.2828 321.227 96.6882 321.511 96.1674L322.1 95.0858C322.199 94.9016 322.233 94.8063 322.194 94.7848C322.067 94.7128 321.029 94.9884 319.097 95.6109C317.165 96.2334 315.968 96.4229 315.516 96.1712C315.452 96.1352 315.329 95.9849 315.155 95.7279C314.98 95.4708 314.871 95.2887 314.843 95.1886C314.76 94.9115 314.949 94.3484 315.403 93.5152C315.858 92.6819 317.091 91.5073 319.113 90.0064C319.3 89.896 319.592 89.6871 319.994 89.3714C320.828 88.723 321.489 88.3326 321.961 88.1931C322.088 88.2652 322.216 88.3449 322.336 88.4329C322.456 88.5208 322.613 88.7319 322.799 89.0743C322.985 89.4088 323.033 89.75 322.94 90.0743C322.599 90.6993 322.036 91.1943 321.243 91.5676C320.933 91.715 320.404 92.1147 319.671 92.7739C319.595 92.7932 319.392 92.9199 319.071 93.1458C318.756 93.3674 318.585 93.4995 318.558 93.5351Z" fill="currentColor"/>
<path fill-rule="evenodd" clip-rule="evenodd" d="M330.344 101.031C329.904 100.732 329.646 100.495 329.56 100.319C329.457 100.113 329.25 100.139 328.954 100.41L328.544 100.875C328.213 101.234 328.079 101.646 328.155 102.103C328.167 102.344 328.323 102.54 328.593 102.699C328.863 102.858 329.16 102.922 329.461 102.907C329.761 102.893 330.114 102.837 330.511 102.748C330.909 102.659 331.185 102.615 331.347 102.607C331.686 102.435 332.106 102.641 332.605 103.234C332.775 103.71 332.389 104.189 331.439 104.671C331.258 104.773 330.846 104.871 330.21 104.979C329.573 105.079 329.089 105.126 328.763 105.102C327.683 104.974 326.798 104.415 326.111 103.449C325.277 102.193 325.57 100.719 327.003 99.0358C327.337 98.6063 327.538 98.2846 327.597 98.0711C327.664 97.8572 327.678 97.6692 327.632 97.5153C327.607 97.4309 327.584 97.3441 327.561 97.2563C327.542 97.1838 327.522 97.1107 327.501 97.0376C327.412 96.636 327.393 96.3872 327.45 96.2908C327.507 96.1945 327.618 96.0877 327.789 95.9625C327.961 95.8451 328.082 95.7847 328.144 95.7818C328.596 95.8695 328.854 95.9353 328.903 95.9799C328.951 96.0244 329.01 96.1308 329.096 96.2985C329.173 96.4665 329.194 96.5826 329.151 96.6393C329.122 96.8435 329.398 96.7992 329.986 96.4981C330.129 96.4213 330.294 96.328 330.473 96.2261L330.475 96.2252C330.907 96.0486 331.419 95.9306 331.995 95.8642C332.571 95.7978 333.019 95.7843 333.314 95.8249C333.618 95.8652 334.002 95.9796 334.467 96.1838C334.941 96.3876 335.25 96.5525 335.411 96.6853C335.886 97.0764 336.197 97.764 336.351 98.7245C336.494 99.1157 336.408 99.5881 336.11 100.133C335.812 100.678 335.467 101.053 335.09 101.243C334.875 101.433 334.333 101.575 333.473 101.671C332.612 101.766 331.963 101.766 331.534 101.677C331.172 101.546 330.775 101.323 330.343 101.023L330.344 101.031ZM334.182 98.7495C334.119 98.4091 333.802 98.2524 333.231 98.2639C333.043 98.2026 332.741 98.2013 332.319 98.2448C331.896 98.2883 331.513 98.3689 331.171 98.471C330.828 98.5732 330.686 98.6814 330.73 98.7808C330.692 98.7982 330.694 98.8371 330.735 98.8898C330.776 98.9425 330.841 99.0018 330.921 99.0682C330.967 99.1063 331.011 99.142 331.053 99.1781C331.085 99.2049 331.116 99.232 331.147 99.2605C331.219 99.3195 331.37 99.3982 331.614 99.4958C331.858 99.5935 332.116 99.6437 332.417 99.6528C332.711 99.6622 333.124 99.5724 333.663 99.3751C334.036 99.092 334.211 98.8808 334.182 98.7495Z" fill="currentColor"/>
<path d="M335.352 105.367C335.2 105.257 334.918 105.185 334.506 105.142C333.112 105.068 332.493 105.534 332.643 106.557C332.811 107.158 333.257 107.59 333.987 107.828C334.798 107.992 335.382 107.91 335.729 107.581C336.076 107.253 336.121 106.735 335.863 106.038C335.669 105.696 335.504 105.477 335.352 105.367Z" fill="currentColor"/>
</svg>
