<svg width="20" height="21" viewBox="0 0 20 21" fill="none" xmlns="http://www.w3.org/2000/svg">
<path d="M15 19.238C14.3056 19.238 13.7153 18.9949 13.2292 18.5088C12.7431 18.0227 12.5 17.4324 12.5 16.738C12.5 16.6407 12.5069 16.5399 12.5208 16.4355C12.5347 16.331 12.5556 16.2374 12.5833 16.1546L6.70833 12.738C6.47222 12.9463 6.20833 13.1096 5.91667 13.228C5.625 13.3463 5.31944 13.4052 5 13.4046C4.30556 13.4046 3.71528 13.1616 3.22917 12.6755C2.74306 12.1893 2.5 11.5991 2.5 10.9046C2.5 10.2102 2.74306 9.6199 3.22917 9.13379C3.71528 8.64768 4.30556 8.40462 5 8.40462C5.31944 8.40462 5.625 8.46379 5.91667 8.58212C6.20833 8.70046 6.47222 8.86351 6.70833 9.07129L12.5833 5.65462C12.5556 5.57129 12.5347 5.47768 12.5208 5.37379C12.5069 5.2699 12.5 5.16907 12.5 5.07129C12.5 4.37684 12.7431 3.78657 13.2292 3.30046C13.7153 2.81434 14.3056 2.57129 15 2.57129C15.6944 2.57129 16.2847 2.81434 16.7708 3.30046C17.2569 3.78657 17.5 4.37684 17.5 5.07129C17.5 5.76573 17.2569 6.35601 16.7708 6.84212C16.2847 7.32823 15.6944 7.57129 15 7.57129C14.6806 7.57129 14.375 7.5124 14.0833 7.39462C13.7917 7.27684 13.5278 7.11351 13.2917 6.90462L7.41667 10.3213C7.44444 10.4046 7.46528 10.4985 7.47917 10.603C7.49306 10.7074 7.5 10.808 7.5 10.9046C7.5 11.0018 7.49306 11.1027 7.47917 11.2071C7.46528 11.3116 7.44444 11.4052 7.41667 11.488L13.2917 14.9046C13.5278 14.6963 13.7917 14.5332 14.0833 14.4155C14.375 14.2977 14.6806 14.2385 15 14.238C15.6944 14.238 16.2847 14.481 16.7708 14.9671C17.2569 15.4532 17.5 16.0435 17.5 16.738C17.5 17.4324 17.2569 18.0227 16.7708 18.5088C16.2847 18.9949 15.6944 19.238 15 19.238Z" fill="#220505"/>
</svg>
