<svg width="8" height="14" viewBox="0 0 8 14" fill="none" xmlns="http://www.w3.org/2000/svg">
<path d="M4.12854 14C3.95715 14 3.80088 13.9729 3.65974 13.9186C3.52867 13.8752 3.41777 13.7829 3.32703 13.6419C2.91367 13.7178 2.50536 13.7775 2.10208 13.8209C1.6988 13.8643 1.32073 13.886 0.967864 13.886C0.665406 13.886 0.428481 13.8047 0.257089 13.6419C0.0856963 13.4899 0 13.2729 0 12.9907C0 12.8279 0.0856963 12.6434 0.257089 12.4372C0.428481 12.231 0.746062 12.0357 1.20983 11.8512C1.6736 11.6558 2.34909 11.5039 3.23629 11.3953C3.30687 10.8853 3.41273 10.2829 3.55387 9.58837C3.69502 8.88295 3.86641 8.13411 4.06805 7.34186C4.26969 6.53876 4.50662 5.74651 4.77883 4.96512C4.4058 5.38837 4.0126 5.74651 3.59924 6.03953C3.19597 6.33256 2.80781 6.55504 2.43478 6.70698C2.07183 6.85891 1.75929 6.93488 1.49716 6.93488C1.28544 6.93488 1.10901 6.8969 0.967864 6.82093C0.836799 6.74496 0.771267 6.60388 0.771267 6.39767C0.771267 6.13721 0.887209 5.89845 1.11909 5.6814C1.35098 5.45349 1.60302 5.23101 1.87524 5.01395C2.28859 4.67752 2.7322 4.27597 3.20605 3.8093C3.68998 3.34264 4.13863 2.84341 4.55198 2.31163C4.97542 1.77984 5.30309 1.25891 5.53497 0.748837C5.64587 0.520931 5.76686 0.341861 5.89792 0.211628C6.02899 0.0705427 6.24071 0 6.53308 0C6.82546 0 7.03718 0.141085 7.16824 0.423256C7.29931 0.694574 7.36484 1.02016 7.36484 1.4C7.36484 1.55194 7.32451 1.86667 7.24386 2.34419C7.1632 2.81085 7.0523 3.38605 6.91115 4.06977C6.77001 4.74264 6.61374 5.48605 6.44234 6.3C6.27095 7.1031 6.09452 7.92791 5.91304 8.77442C5.73157 9.62093 5.56018 10.4403 5.39887 11.2326C5.73157 11.2217 6.07435 11.2163 6.42722 11.2163C6.85066 11.2163 7.21865 11.2543 7.53119 11.3302C7.84373 11.4062 8 11.569 8 11.8186C8 12.0791 7.89414 12.2744 7.68242 12.4047C7.48078 12.524 7.23377 12.6326 6.9414 12.7302C6.66919 12.8171 6.36169 12.9093 6.0189 13.007C5.67612 13.1155 5.31317 13.2132 4.93006 13.3C4.82924 13.5496 4.70825 13.7287 4.56711 13.8372C4.42596 13.9457 4.27977 14 4.12854 14Z" fill="#FF4F14"/>
</svg>
