<svg width="9" height="14" viewBox="0 0 9 14" fill="none" xmlns="http://www.w3.org/2000/svg">
<path d="M9 8.11737C9 8.53365 8.84014 8.97183 8.52043 9.43192C8.20071 9.88106 7.78508 10.3247 7.27353 10.7629C6.76199 11.2011 6.20249 11.6174 5.59503 12.0117C4.99822 12.3951 4.40675 12.7347 3.8206 13.0305C3.24512 13.3372 2.73357 13.5728 2.28597 13.7371C1.83837 13.9124 1.51332 14 1.31083 14C0.927176 14 0.612789 13.9288 0.367673 13.7864C0.122558 13.644 0 13.392 0 13.0305C0 12.7567 0.0639432 12.543 0.191829 12.3897C0.319716 12.2363 0.500888 12.1049 0.735346 11.9953C1.30018 11.7324 1.88099 11.4531 2.4778 11.1573C3.0746 10.8615 3.64476 10.5602 4.18828 10.2535C4.74245 9.94679 5.23268 9.64554 5.65897 9.34976C6.09591 9.05399 6.44227 8.77465 6.69805 8.51174C6.95382 8.23787 7.0817 7.99687 7.0817 7.78873C7.0817 7.54773 6.99112 7.37246 6.80995 7.26291C6.63943 7.15336 6.4103 7.08216 6.12256 7.0493C5.83481 7.00548 5.5151 6.98357 5.16341 6.98357C4.68384 6.98357 4.28419 7.00548 3.96448 7.0493C3.64476 7.09311 3.36767 7.13693 3.13322 7.18075C2.90941 7.21361 2.7016 7.23005 2.50977 7.23005C2.19005 7.23005 1.96092 7.15884 1.82238 7.01643C1.68384 6.86307 1.61456 6.66041 1.61456 6.40845C1.61456 6.20031 1.68917 5.9867 1.83837 5.76761C1.98757 5.54851 2.22735 5.38419 2.55773 5.27465C3.25044 5.0446 3.86323 4.79264 4.39609 4.51878C4.93961 4.23396 5.36057 3.92175 5.65897 3.58216C5.96803 3.24257 6.12256 2.87559 6.12256 2.48122C6.12256 2.36072 6.06394 2.27856 5.94671 2.23474C5.84014 2.19092 5.61634 2.16901 5.27531 2.16901C4.96625 2.16901 4.61989 2.20736 4.23623 2.28404C3.86323 2.36072 3.49556 2.45383 3.13322 2.56338C2.78153 2.66197 2.4778 2.74961 2.22202 2.82629C1.97691 2.90297 1.82238 2.94131 1.75844 2.94131C1.28952 2.94131 1.05506 2.70031 1.05506 2.21831C1.05506 2.10876 1.13499 1.93349 1.29485 1.69249C1.45471 1.45149 1.69449 1.20501 2.01421 0.953052C2.33393 0.690141 2.72824 0.465571 3.19716 0.279343C3.67673 0.0931143 4.23091 0 4.85968 0C5.4778 0 6.01599 0.125978 6.47424 0.377934C6.94316 0.62989 7.30551 0.974961 7.56128 1.41315C7.82771 1.84038 7.96092 2.32786 7.96092 2.87559C7.96092 3.29186 7.83304 3.70814 7.57726 4.12441C7.33215 4.52973 7.02309 4.89124 6.65009 5.20892C7.36412 5.42801 7.93428 5.80595 8.36057 6.34272C8.78686 6.86854 9 7.46009 9 8.11737Z" fill="#FF4F14"/>
</svg>
