<svg width="20" height="20" viewBox="0 0 20 20" fill="none" xmlns="http://www.w3.org/2000/svg">
<path d="M7.37592 12.6265L12.626 7.37585M9.12594 4.7505L9.53107 4.28144C10.3517 3.46087 11.4646 2.99992 12.625 3C13.7854 3.00008 14.8982 3.46119 15.7187 4.28188C16.5392 5.10256 17.0001 6.21561 17 7.37616C16.9999 8.53671 16.5389 9.64969 15.7183 10.4703L15.251 10.8763M10.876 15.2519L10.5286 15.7192C9.6982 16.5398 8.57786 17 7.41048 17C6.2431 17 5.12277 16.5398 4.29238 15.7192C3.88298 15.3147 3.55793 14.8329 3.33608 14.3018C3.11423 13.7707 3 13.2008 3 12.6252C3 12.0496 3.11423 11.4798 3.33608 10.9487C3.55793 10.4176 3.88298 9.93579 4.29238 9.53126L4.75089 9.12608" stroke="#F9D0D6" stroke-width="2" stroke-linecap="round" stroke-linejoin="round"/>
</svg>
