<svg width="25" height="24" viewBox="0 0 25 24" fill="none" xmlns="http://www.w3.org/2000/svg">
<path d="M13.897 11.0508L13.723 9.05878L16.097 8.85078C15.3499 8.13138 14.3975 7.66211 13.3719 7.50797C12.3463 7.35383 11.2981 7.52245 10.3725 7.99047C9.44699 8.45849 8.68988 9.20275 8.2061 10.1202C7.72231 11.0376 7.53578 12.0827 7.67236 13.1108C7.80893 14.139 8.26184 15.0992 8.96835 15.8585C9.67487 16.6178 10.6 17.1386 11.6157 17.3487C12.6313 17.5589 13.6872 17.448 14.637 17.0314C15.5868 16.6149 16.3836 15.9133 16.917 15.0238L18.919 15.5238C18.2674 16.858 17.2084 17.9506 15.8951 18.6434C14.5818 19.3362 13.0822 19.5935 11.613 19.378C10.1439 19.1625 8.78134 18.4854 7.72231 17.4446C6.66329 16.4038 5.96266 15.0532 5.7217 13.588C5.48074 12.1229 5.71193 10.619 6.38186 9.29387C7.0518 7.96873 8.12576 6.89095 9.44851 6.21631C10.7713 5.54167 12.2743 5.30514 13.7403 5.54088C15.2063 5.77663 16.5594 6.47246 17.604 7.52778L17.359 4.72478L19.351 4.55078L19.874 10.5278L13.897 11.0508Z" fill="#F9D0D6"/>
</svg>
