<svg width="136" height="57" viewBox="0 0 136 57" fill="none" xmlns="http://www.w3.org/2000/svg">
<path d="M14.0018 40.9142C11.2122 43.1021 8.30866 45.1752 5.35772 47.1383C4.13681 47.9505 3.16932 48.5847 1.9002 49.1796C1.60896 49.3162 1.36019 49.2595 1.76354 49.3855C3.13844 49.8147 4.44208 50.5492 5.70653 51.2189C7.79957 52.3274 9.86095 53.4988 11.9454 54.6222M4.77929 49.0645C13.9135 48.5136 18.7176 48.5759 27.6903 46.6369C33.8595 45.3037 39.7957 43.1546 45.5514 40.6081C48.1085 39.4768 50.8965 38.0515 53.1329 36.2969" stroke="#FF4F14" stroke-width="3" stroke-linecap="round"/>
<path d="M6.21978 19.3282C5.91996 19.2039 5.67943 19.0956 5.49821 19.0033C5.31486 18.9283 5.22319 18.8908 5.22319 18.8908C5.26827 18.8088 5.26055 18.7291 5.20004 18.6516C5.15677 18.5763 5.04135 18.5184 4.85377 18.4778C4.61627 18.2736 4.37862 17.9994 4.14081 17.6551C3.903 17.3108 3.70074 16.9621 3.53404 16.609C3.36733 16.256 3.25901 15.9976 3.20909 15.8339C3.12013 15.5604 3.14781 15.4063 3.29212 15.3715C3.43855 15.3194 3.61191 15.262 3.81219 15.199C4.01883 15.0843 4.22985 15.0052 4.44526 14.9617C4.67792 14.9202 4.84523 15.0545 4.94719 15.3646C5.12268 15.7888 5.42629 16.1674 5.85803 16.5005C6.30701 16.8357 6.83011 17.0663 7.42734 17.1921C8.04181 17.3201 8.67533 17.2928 9.32792 17.1104C9.76509 16.9715 10.021 16.7403 10.0958 16.4169C10.1726 16.0763 10.092 15.6637 9.85385 15.1794C9.81905 15.0351 9.75521 14.9134 9.66233 14.8145C9.58669 14.7177 9.46249 14.5887 9.28974 14.4274C9.13423 14.2683 8.9117 14.0134 8.62216 13.6627C8.3783 13.5103 8.15064 13.3685 7.93915 13.2375C7.74492 13.1087 7.5345 12.969 7.30789 12.8187C7.04891 12.6468 6.76179 12.419 6.44653 12.1352C6.13339 11.8342 5.84823 11.5191 5.59106 11.19C5.33601 10.8436 5.14782 10.5229 5.0265 10.2279C4.78234 9.93533 4.65329 9.56064 4.63937 9.1038C4.62756 8.62971 4.69653 8.13928 4.84627 7.63252C5.01327 7.12787 5.23426 6.68237 5.50927 6.29601C5.64238 6.06729 5.87019 5.78017 6.1927 5.43466C6.51732 5.0719 6.87749 4.70475 7.27321 4.33322C7.66893 3.96169 8.04211 3.63115 8.39275 3.34161C8.76276 3.03694 9.05002 2.83589 9.25454 2.73847C9.40944 2.61744 9.57296 2.49748 9.7451 2.37858C9.91937 2.24243 10.0065 2.17436 10.0065 2.17436C10.0343 2.09025 10.0655 2.05031 10.1 2.05455C10.1517 2.0609 10.1776 2.06408 10.1776 2.06408C10.2702 2.02293 10.4704 1.95999 10.7784 1.87527C11.0864 1.79055 11.433 1.60554 11.8181 1.32023C13.0413 0.91026 14.0698 0.660184 14.9036 0.570007C15.7395 0.462586 16.3903 0.43746 16.8559 0.494631C17.2849 0.564811 17.6926 0.737404 18.079 1.01241C18.4674 1.27017 18.7881 1.58087 19.0411 1.94453C19.3112 2.3103 19.4468 2.7033 19.4477 3.12353C19.5176 3.55223 19.3958 4.04493 19.0824 4.60162C18.7884 5.14318 18.4026 5.64723 17.9252 6.11376C17.4672 6.56517 17.0078 6.88512 16.547 7.07361C16.0387 7.22126 15.6217 7.19631 15.2958 6.99876C14.9872 6.80332 14.8617 6.54283 14.9191 6.2173C14.9361 6.07934 14.9993 5.9208 15.1088 5.74169C15.2356 5.5647 15.5442 5.26124 16.0346 4.83132C16.686 4.08856 17.0501 3.54684 17.1269 3.20618C17.2037 2.86551 17.0729 2.64814 16.7343 2.55405C16.6351 2.50686 16.4357 2.49113 16.1362 2.50687C15.8367 2.52261 15.5092 2.55241 15.1537 2.59629C14.8176 2.62504 14.5149 2.66665 14.2456 2.72111C13.9936 2.77769 13.8655 2.82323 13.8612 2.85772C13.8612 2.85772 13.8581 2.88359 13.8517 2.93532C13.8453 2.98706 13.8087 3.00007 13.7419 2.97435C13.7074 2.97012 13.5793 3.01565 13.3575 3.11096C13.1551 3.19114 12.9053 3.30051 12.6083 3.43908C12.3112 3.57766 12.013 3.72485 11.7138 3.88067C11.4339 4.02136 11.1907 4.14904 10.9841 4.2637C10.7774 4.37837 10.6634 4.45189 10.6419 4.48427C10.5841 4.66973 10.3646 4.81783 9.98341 4.92857C9.6131 5.09316 9.27532 5.34927 8.97006 5.6969C8.6648 6.04453 8.30372 6.49034 7.88683 7.03432C7.54496 7.39496 7.28509 7.80068 7.1072 8.25147C6.93143 8.68502 6.88696 9.04717 6.9738 9.33791C7.02615 9.62442 7.22508 9.92893 7.57059 10.2514C7.93546 10.5588 8.42983 10.9521 9.05369 11.4313C9.59979 11.831 10.1093 12.2436 10.5822 12.6693C11.0551 13.095 11.4514 13.5025 11.7712 13.8919C12.0931 14.264 12.292 14.5685 12.368 14.8054C12.5389 15.1239 12.6184 15.475 12.6063 15.8587C12.6114 16.2444 12.5659 16.6152 12.4697 16.971C12.3928 17.3116 12.3062 17.5898 12.2097 17.8056C12.0551 18.0667 11.8294 18.3365 11.5326 18.6152C11.253 18.8959 11.0109 19.015 10.806 18.9723C10.61 19.0008 10.456 19.0431 10.3441 19.0994C10.2494 19.1578 10.1385 19.2055 10.0114 19.2424C9.88223 19.2965 9.58816 19.3392 9.1292 19.3704C8.66812 19.4188 8.16711 19.4361 7.62616 19.4221C7.08309 19.4255 6.6143 19.3942 6.21978 19.3282Z" fill="#220505"/>
<path d="M18.9731 18.6623C18.4197 18.8919 17.8467 18.9966 17.254 18.9763C16.6807 18.9409 16.1557 18.7977 15.6788 18.5466C15.2041 18.2783 14.8359 17.9267 14.5742 17.492C14.4293 17.2466 14.3089 16.873 14.213 16.371C14.1192 15.8519 14.1759 15.1761 14.3831 14.3438C14.584 13.5633 14.9239 12.791 15.4028 12.0271C15.8989 11.2653 16.4697 10.6089 17.115 10.0579C17.7603 9.50699 18.433 9.16072 19.1331 9.01911C19.3851 8.96253 19.6339 8.93182 19.8796 8.92697C20.1446 8.907 20.482 8.93966 20.8916 9.02497C21.2819 9.12541 21.6227 9.27228 21.9141 9.4656C22.2075 9.64168 22.4127 9.82441 22.5295 10.0138C22.7715 10.3236 22.9198 10.6131 22.9742 10.8824C23.0287 11.1517 23.0325 11.4059 22.9856 11.6453C22.8316 12.1865 22.5085 12.7508 22.0163 13.338C21.5413 13.9274 20.9226 14.3328 20.1602 14.5543C19.8522 14.639 19.4978 14.6743 19.0969 14.66C18.696 14.6458 18.1592 14.5274 17.4863 14.3047C17.083 14.1677 16.8018 14.1769 16.6426 14.3324C16.5008 14.4901 16.4077 14.82 16.3636 15.3222C16.3599 15.6369 16.395 15.9213 16.4689 16.1754C16.5621 16.4144 16.7586 16.5961 17.0584 16.7204C17.4466 16.8381 17.73 16.8817 17.9088 16.8511C18.0898 16.8033 18.317 16.7349 18.5905 16.646C18.739 16.5767 18.88 16.4977 19.0134 16.4091C19.1641 16.3225 19.3061 16.2349 19.4396 16.1463C19.5902 16.0598 19.7118 15.9959 19.8044 15.9548C19.8991 15.8964 19.9906 15.8638 20.079 15.8572C20.1673 15.8505 20.2546 15.8525 20.3408 15.8631C20.5284 15.9036 20.6968 16.0293 20.8459 16.2402C20.9951 16.4511 21.085 16.6459 21.1155 16.8247C21.0986 16.9627 20.988 17.1504 20.7838 17.3879C20.5817 17.6082 20.3171 17.8382 19.9901 18.0782C19.6824 18.303 19.3434 18.4977 18.9731 18.6623ZM19.3451 12.8525C19.4722 12.8156 19.6594 12.716 19.9069 12.5539C20.1716 12.3938 20.4115 12.222 20.6266 12.0383C20.8439 11.8374 20.9599 11.6766 20.9747 11.5559C20.998 11.3662 20.8888 11.1865 20.647 11.0168C20.4226 10.8492 20.1067 10.7841 19.6995 10.8217C19.5573 10.8392 19.3818 10.9139 19.1731 11.0459C18.9643 11.1778 18.7524 11.3355 18.5373 11.5192C18.3243 11.6856 18.1372 11.8552 17.9759 12.0279C17.8168 12.1834 17.705 12.3098 17.6405 12.4069C17.6989 12.5016 17.8284 12.5875 18.029 12.6646C18.2296 12.7418 18.4506 12.7952 18.692 12.8248C18.9507 12.8566 19.1684 12.8658 19.3451 12.8525Z" fill="#220505"/>
<path d="M24.5946 20.3503C23.6461 20.2338 22.9471 19.8679 22.4975 19.2525C22.0651 18.6393 21.9188 17.7636 22.0586 16.6254C22.1348 16.0046 22.3305 15.3372 22.6458 14.6232C22.9783 13.9113 23.3776 13.2251 23.8438 12.5646C24.3273 11.9063 24.8336 11.347 25.3627 10.8868C25.894 10.4094 26.4051 10.0958 26.8961 9.94604C27.0792 9.88098 27.2676 9.84286 27.4616 9.83166C27.6749 9.80534 27.8764 9.80382 28.0661 9.82711C28.273 9.85252 28.4951 9.89729 28.7323 9.96142C28.9888 10.0104 29.2239 10.0918 29.4375 10.2056C29.8193 10.375 30.1356 10.6501 30.3864 11.031C30.6545 11.414 30.7483 11.9332 30.6678 12.5885C30.6467 12.761 30.6061 12.9486 30.5462 13.1513C30.4885 13.3367 30.4048 13.519 30.2953 13.6981C30.0012 14.2397 29.5896 14.7405 29.0605 15.2007C28.5486 15.663 28.0299 15.9669 27.5044 16.1125C27.3579 16.1645 27.2136 16.1993 27.0714 16.2169C26.9486 16.2193 26.8182 16.212 26.6802 16.1951C26.3181 16.1506 25.9968 16.0587 25.7163 15.9192C25.4531 15.7818 25.2114 15.6121 24.9911 15.41L24.8064 15.2035L24.6453 15.4463C24.4844 15.7592 24.3643 16.0245 24.285 16.2423C24.223 16.4623 24.1856 16.624 24.1729 16.7275C24.1475 16.9344 24.1297 17.151 24.1194 17.3773C24.1112 17.5864 24.1418 17.7652 24.2111 17.9137C24.2695 18.0084 24.3472 18.088 24.4443 18.1524C24.5587 18.219 24.7021 18.2629 24.8746 18.284C24.978 18.2968 25.0729 18.3084 25.1591 18.319C25.2647 18.3144 25.353 18.3078 25.4241 18.299C25.743 18.2681 26.0068 18.1868 26.2156 18.0548C26.4437 17.9078 26.6773 17.7877 26.9163 17.6945L27.0261 17.6555L27.0097 17.5747C27.322 17.4555 27.5319 17.385 27.6396 17.3632C27.7495 17.3242 27.8324 17.2906 27.8883 17.2624C27.9658 17.2019 28.0476 17.177 28.1338 17.1876C28.3795 17.1827 28.6038 17.2803 28.8069 17.4802C29.0292 17.6651 29.1256 17.8782 29.096 18.1197C29.0832 18.2231 28.9855 18.3774 28.8028 18.5826C28.6373 18.7898 28.4287 18.9918 28.177 19.1884C27.9446 19.37 27.709 19.5073 27.47 19.6005C27.4161 19.6114 27.3612 19.6309 27.3052 19.6591C27.2514 19.6699 27.1965 19.6895 27.1405 19.7176L27.1664 19.7208C26.9857 19.9087 26.8178 19.9931 26.6626 19.974L26.4557 19.9486C26.3719 20.0609 26.1318 20.1627 25.7355 20.254C25.337 20.3627 24.9567 20.3947 24.5946 20.3503ZM26.7052 14.2813C26.8604 14.3004 27.0015 14.2915 27.1286 14.2546C27.2729 14.2198 27.4096 14.1753 27.5388 14.1211C27.9887 13.8788 28.3026 13.5322 28.4805 13.0814C28.6584 12.6306 28.6586 12.2718 28.4813 12.005C28.4532 11.949 28.4143 11.9092 28.3647 11.8856C28.3172 11.8448 28.259 11.8201 28.19 11.8116C28.0003 11.7884 27.7773 11.8222 27.5211 11.9133C27.2821 12.0065 27.0367 12.1514 26.785 12.3481C26.5333 12.5447 26.2935 12.7866 26.0657 13.0738L25.6627 13.5757C25.6993 13.5627 25.7263 13.5572 25.7435 13.5593C25.7801 13.5463 25.807 13.5409 25.8243 13.543C25.9795 13.5621 26.0766 13.6265 26.1156 13.7363C26.1547 13.8461 26.2023 13.957 26.2586 14.069C26.3321 14.183 26.481 14.2538 26.7052 14.2813Z" fill="#220505"/>
<path d="M37.492 20.9886C37.2787 21.0149 37.0533 20.926 36.8158 20.7218C36.5783 20.5176 36.3719 20.2734 36.1968 19.9893C36.0216 19.7052 35.9208 19.4566 35.8945 19.2433C35.87 18.8726 35.9412 18.435 36.1082 17.9304C36.2946 17.4106 36.5617 16.8745 36.9096 16.322C37.2597 15.7523 37.6766 15.2083 38.1603 14.6901C38.6462 14.1546 39.1764 13.6858 39.7509 13.2837C40.3254 12.8816 40.9304 12.5882 41.5657 12.4037C41.8413 12.2975 42.033 12.2335 42.1407 12.2117C42.2505 12.1727 42.354 12.1854 42.4511 12.2498C42.5503 12.297 42.7208 12.4055 42.9625 12.5752C43.1955 12.6738 43.4263 12.7897 43.6551 12.9228C43.9032 13.0408 44.1062 13.2408 44.2641 13.5227C44.3703 13.7983 44.442 14.0697 44.4792 14.3369C44.5165 14.604 44.5408 14.9046 44.5523 15.2386C44.6373 15.6867 44.6541 15.9776 44.6027 16.1113C44.5534 16.2278 44.49 16.3163 44.4126 16.3768C44.2534 16.5323 44.2084 16.6143 44.2773 16.6227C44.2773 16.6227 44.2645 16.6562 44.2388 16.723C44.2324 16.7748 44.1873 16.8568 44.1035 16.969C43.9362 17.3336 43.7969 17.6841 43.6856 18.0205C43.5936 18.3418 43.5663 18.636 43.6035 18.9032C43.6949 19.2995 43.8484 19.5459 44.0641 19.6424C44.2971 19.7411 44.6265 19.624 45.0525 19.2912C45.2592 19.1765 45.4853 19.1167 45.731 19.1119C45.9788 19.0898 46.0942 19.1477 46.0772 19.2857C46.0772 19.2857 46.0999 19.3147 46.1453 19.3728C46.1928 19.4137 46.251 19.4383 46.32 19.4468C46.4063 19.4574 46.4302 19.5478 46.3917 19.7182C46.3554 19.8713 46.2987 20.0481 46.2216 20.2487C46.1444 20.4493 46.0543 20.6133 45.9511 20.7406C45.6607 20.9675 45.5102 21.1241 45.4996 21.2103C45.4996 21.2103 45.4608 21.2406 45.3834 21.3011C45.3253 21.3465 45.2199 21.4211 45.0671 21.5248C44.7334 21.6764 44.3251 21.7226 43.8422 21.6633C43.3766 21.6061 43.0261 21.4668 42.7907 21.2453C42.5554 21.0239 42.3253 20.7593 42.1005 20.4516C41.8929 20.1461 41.7695 19.8683 41.7301 19.6184L41.6326 19.3439L40.8221 19.7433C40.6091 19.9097 40.4531 20.0393 40.3542 20.1322C40.2574 20.2078 40.1702 20.2759 40.0928 20.3364C40.0326 20.399 39.9648 20.452 39.8895 20.4953C39.8314 20.5406 39.7679 20.5591 39.6989 20.5506C39.6299 20.5422 39.5695 20.5347 39.5178 20.5284C39.4661 20.522 39.4402 20.5189 39.4402 20.5189C39.4317 20.5878 39.2994 20.6679 39.0431 20.7589C38.789 20.8328 38.51 20.8948 38.2063 20.945C37.9025 20.9952 37.6644 21.0098 37.492 20.9886ZM38.302 18.8824C38.4055 18.8951 38.5681 18.8538 38.7898 18.7585C39.031 18.6481 39.2925 18.5139 39.5745 18.356C39.8564 18.198 40.1125 18.0369 40.3428 17.8726C40.5903 17.7105 40.7731 17.5754 40.8914 17.4674C40.9689 17.4069 41.0603 17.3043 41.1655 17.1597C41.2881 17.0172 41.4171 16.893 41.5526 16.7871C42.0043 16.3874 42.2978 16.0646 42.433 15.8186C42.5704 15.5554 42.5632 15.2569 42.4117 14.9232C42.366 14.7251 42.2925 14.611 42.1911 14.5811C42.0897 14.5511 41.8668 14.585 41.5222 14.6827C41.3004 14.778 41.0519 14.9488 40.7766 15.1951C40.5013 15.4414 40.2131 15.7211 39.9121 16.0342C39.6283 16.3495 39.3607 16.6755 39.1093 17.0122C38.8579 17.349 38.6452 17.6554 38.4712 17.9317C38.3145 18.21 38.2256 18.4354 38.2044 18.6079C38.1959 18.6768 38.2058 18.7393 38.2339 18.7953C38.2793 18.8534 38.302 18.8824 38.302 18.8824Z" fill="#220505"/>
<path d="M55.1772 23.0025C54.802 22.9215 54.4925 22.8047 54.2487 22.6522C54.0242 22.4846 53.8587 22.1929 53.7522 21.7773C53.7171 21.4929 53.7175 21.2041 53.7535 20.9109C53.8089 20.6026 53.8707 20.3126 53.9391 20.041C54.0096 19.752 54.0575 19.5041 54.083 19.2971C54.0872 19.2627 54.0957 19.1937 54.1084 19.0902C54.1211 18.9867 54.1327 18.8919 54.1433 18.8057C54.1406 18.5427 54.0906 18.3791 53.9935 18.3146C53.9158 18.2351 53.7595 18.2246 53.5247 18.2833C53.1414 18.4113 52.7162 18.5954 52.2491 18.8357C51.8013 19.0608 51.3213 19.3344 50.8091 19.6566C50.3163 19.9637 49.803 20.2946 49.2694 20.6492C48.8391 21.0165 48.5133 21.3178 48.2919 21.5532C48.0876 21.7907 47.8907 21.8978 47.701 21.8745C47.5546 21.9265 47.4101 21.8913 47.2676 21.7688C47.1251 21.6463 46.9761 21.5054 46.8206 21.3463C46.7168 21.1935 46.5914 21.0031 46.4444 20.7749C46.3167 20.5317 46.2398 20.3735 46.2138 20.3003C46.2477 20.0243 46.2956 19.7764 46.3576 19.5564C46.4369 19.3386 46.5345 19.1143 46.6503 18.8834C46.7835 18.6547 46.9381 18.3936 47.1141 18.1001C47.1979 17.9879 47.2731 17.8746 47.3397 17.7602C47.4256 17.6307 47.5212 17.4937 47.6265 17.3491C47.7251 17.1161 47.8538 16.8518 48.0126 16.5562C48.1887 16.2628 48.3541 15.9855 48.5087 15.7244C48.7534 15.2993 48.9476 14.9293 49.0913 14.6143C49.235 14.2994 49.3647 13.9564 49.4802 13.5855C49.4672 13.5489 49.4822 13.4982 49.5251 13.4335C49.5681 13.3687 49.6251 13.332 49.6962 13.3232L49.748 13.3296C49.8793 13.2582 50.1045 13.2771 50.4237 13.3863C50.7623 13.4804 51.0093 13.607 51.1648 13.7661C51.4888 14.121 51.6115 14.5474 51.5329 15.0454C51.4542 15.5434 51.1151 16.1669 50.5155 16.916C50.3609 17.1771 50.1998 17.4199 50.0322 17.6444C49.8839 17.8538 49.8045 18.0016 49.7939 18.0878C49.7939 18.0878 49.8692 18.0446 50.0199 17.958C50.1706 17.8715 50.3492 17.7709 50.5559 17.6562C50.7646 17.5243 50.9433 17.4237 51.0918 17.3544C51.1886 17.2788 51.3974 17.1469 51.7181 16.9587C52.0409 16.7532 52.3906 16.5424 52.7673 16.326C53.1439 16.1097 53.4442 15.9453 53.6681 15.8327C53.8747 15.7181 54.1331 15.6097 54.4432 15.5078C54.7554 15.3886 54.946 15.3332 55.015 15.3417C55.1875 15.3628 55.387 15.4486 55.6136 15.599C55.8574 15.7514 56.0723 15.9266 56.258 16.1245C56.4632 16.3072 56.5745 16.4697 56.592 16.6119C56.5836 16.6808 56.5633 16.7746 56.5312 16.8932C56.5013 16.9946 56.481 17.0884 56.4704 17.1746C56.4193 17.4484 56.3694 17.7836 56.3207 18.1803C56.2914 18.5618 56.2523 18.9508 56.2036 19.3475C56.1571 19.7269 56.0802 20.0675 55.9731 20.3695C55.9731 20.3695 55.9796 20.3878 55.9926 20.4244C56.0078 20.4437 56.0208 20.4804 56.0317 20.5342C56.0123 20.5493 55.9994 20.5828 55.9931 20.6345C56.0061 20.6711 56.0126 20.6894 56.0126 20.6894C56.0323 20.8144 56.0519 20.9393 56.0716 21.0643C56.1085 21.1913 56.1519 21.3367 56.2019 21.5004C56.2539 21.6468 56.3093 21.8374 56.368 22.0722C56.3232 22.2942 56.1663 22.5026 55.8974 22.6971C55.6478 22.8765 55.4077 22.9783 55.1772 23.0025Z" fill="#220505"/>
<path d="M68.3873 24.7296C67.8339 24.9592 67.2609 25.0639 66.6682 25.0436C66.0949 25.0082 65.5698 24.865 65.093 24.6139C64.6183 24.3456 64.2501 23.994 63.9884 23.5593C63.8435 23.3139 63.7231 22.9403 63.6271 22.4383C63.5333 21.9192 63.5901 21.2434 63.7973 20.4111C63.9981 19.6306 64.338 18.8583 64.817 18.0944C65.3131 17.3326 65.8838 16.6762 66.5292 16.1252C67.1745 15.5743 67.8472 15.228 68.5473 15.0864C68.7993 15.0298 69.0481 14.9991 69.2938 14.9943C69.5588 14.9743 69.8961 15.007 70.3058 15.0923C70.6961 15.1927 71.0369 15.3396 71.3282 15.5329C71.6217 15.709 71.8268 15.8917 71.9436 16.0811C72.1857 16.3909 72.3339 16.6804 72.3884 16.9497C72.4429 17.219 72.4466 17.4732 72.3998 17.7126C72.2458 18.2538 71.9227 18.8181 71.4304 19.4053C70.9555 19.9947 70.3368 20.4001 69.5744 20.6216C69.2664 20.7063 68.9119 20.7416 68.5111 20.7273C68.1102 20.7131 67.5733 20.5947 66.9005 20.372C66.4972 20.235 66.216 20.2442 66.0568 20.3997C65.9149 20.5574 65.8219 20.8873 65.7778 21.3895C65.7741 21.7042 65.8092 21.9886 65.8831 22.2427C65.9762 22.4817 66.1728 22.6634 66.4726 22.7877C66.8607 22.9054 67.1442 22.949 67.323 22.9184C67.5039 22.8706 67.7312 22.8022 68.0047 22.7133C68.1532 22.644 68.2942 22.565 68.4276 22.4764C68.5783 22.3898 68.7203 22.3022 68.8537 22.2136C69.0044 22.1271 69.126 22.0632 69.2186 22.0221C69.3133 21.9637 69.4048 21.9311 69.4932 21.9245C69.5815 21.9178 69.6688 21.9198 69.755 21.9304C69.9426 21.9709 70.111 22.0966 70.2601 22.3075C70.4093 22.5184 70.4991 22.7132 70.5297 22.892C70.5128 23.03 70.4022 23.2177 70.198 23.4552C69.9959 23.6755 69.7313 23.9055 69.4043 24.1455C69.0966 24.3703 68.7576 24.565 68.3873 24.7296ZM68.7593 18.9198C68.8863 18.8829 69.0736 18.7833 69.3211 18.6212C69.5858 18.4611 69.8257 18.2893 70.0408 18.1056C70.2581 17.9047 70.3741 17.7439 70.3889 17.6232C70.4122 17.4335 70.303 17.2538 70.0612 17.0841C69.8367 16.9165 69.5209 16.8514 69.1137 16.889C68.9715 16.9065 68.796 16.9812 68.5872 17.1132C68.3785 17.2451 68.1666 17.4028 67.9514 17.5865C67.7385 17.7529 67.5513 17.9225 67.3901 18.0952C67.231 18.2507 67.1192 18.3771 67.0547 18.4742C67.1131 18.5689 67.2426 18.6548 67.4432 18.7319C67.6438 18.8091 67.8648 18.8625 68.1062 18.8921C68.3649 18.9239 68.5826 18.9331 68.7593 18.9198Z" fill="#220505"/>
<path d="M70.8747 25.6389C70.603 25.5705 70.4269 25.3651 70.3465 25.0226C70.2853 24.665 70.4612 24.3015 70.8742 23.9321C70.971 23.8565 71.1571 23.6955 71.4324 23.4492C71.7077 23.2029 72.0131 22.9254 72.3486 22.6164C72.7035 22.2924 73.0293 21.9911 73.3261 21.7124L74.8069 20.345L76.1107 19.3498L77.8143 17.8785C78.3994 17.3902 78.8685 17.0627 79.2215 16.8959C79.5767 16.712 79.8654 16.6424 80.0874 16.6872C80.3095 16.7319 80.4962 16.8511 80.6474 17.0448C80.7273 17.1071 80.7642 17.2342 80.7582 17.426C80.7694 17.6199 80.7707 17.7514 80.7623 17.8203C80.7819 17.9453 80.6478 18.1826 80.3598 18.5324C80.0739 18.8649 79.4856 19.3791 78.5949 20.0749C78.1084 20.3303 77.6995 20.5952 77.3683 20.8696C77.0542 21.1461 76.9016 21.3199 76.9104 21.391C76.5963 21.6676 76.3328 21.889 76.1198 22.0554C75.9241 22.224 75.7197 22.3914 75.5067 22.5578C75.3131 22.7091 75.0797 22.8993 74.8065 23.1283C74.5527 23.3422 74.2085 23.65 73.7741 24.0518C73.2795 24.5163 72.7577 24.9161 72.2089 25.2513C71.6622 25.5693 71.2175 25.6985 70.8747 25.6389ZM77.2077 27.3093C77.087 27.2944 76.9501 27.2689 76.797 27.2326C76.644 27.1963 76.4842 27.0716 76.3178 26.8586C76.1493 26.6629 75.9535 26.3325 75.7305 25.8675L75.4346 25.0697L75.4315 25.0956C75.3404 24.8393 75.2427 24.4947 75.1383 24.0618C75.0533 23.6137 75.003 23.31 74.9876 23.1505C74.9918 23.116 74.9809 23.0622 74.9549 22.989C74.9461 22.9179 74.908 22.7294 74.8405 22.4235C74.7731 22.1176 74.6351 21.6018 74.4266 20.876L74.2101 19.4315C74.1511 19.0567 74.0814 18.698 74.0009 18.3555C73.9225 17.9958 73.8476 17.7503 73.7762 17.619C73.683 17.38 73.6924 17.2323 73.8044 17.1761C73.9335 17.1219 74.0518 17.0139 74.1592 16.852L74.2141 16.8325C74.3733 16.677 74.609 16.5396 74.9212 16.4204C75.2506 16.3033 75.5071 16.2823 75.6904 16.3573C75.8178 16.4605 75.9335 16.6585 76.0376 16.9514C76.161 17.2291 76.264 17.5306 76.3466 17.8558C76.4486 18.1659 76.5268 18.4556 76.5813 18.7249L76.5845 18.699L76.7805 19.6684L76.9939 21.1387C76.9488 21.2207 76.9449 21.3953 76.9821 21.6624C77.0365 21.9317 77.1019 22.2548 77.1781 22.6318L77.2571 23.2716C77.307 23.4353 77.3721 23.6184 77.4523 23.8208C77.5346 24.0059 77.5931 24.1707 77.6279 24.315L77.6311 24.2891C77.6898 24.5239 77.7506 24.7414 77.8135 24.9417C77.8765 25.142 77.9264 25.3056 77.9633 25.4327C78.0175 25.5619 78.0532 25.6275 78.0704 25.6297C78.1654 25.7113 78.2119 25.7608 78.2097 25.7781C78.2249 25.7974 78.2389 25.8254 78.2519 25.862C78.2628 25.9159 78.2824 25.9708 78.3105 26.0267C78.3559 26.0848 78.384 26.1408 78.3949 26.1947C78.4318 26.3217 78.3783 26.4727 78.2343 26.6476C78.0903 26.8224 77.9139 26.9758 77.7051 27.1077C77.5136 27.2418 77.3478 27.3089 77.2077 27.3093Z" fill="#220505"/>
<path d="M82.1494 26.5769C82.0072 26.5944 81.824 26.5894 81.5998 26.5619C81.3777 26.5171 81.1826 26.4669 81.0144 26.4113C80.8655 26.3405 80.7943 26.2792 80.8006 26.2275C80.8112 26.1412 80.7734 26.0928 80.6872 26.0822C80.6872 26.0822 80.6008 26.0016 80.428 25.8404C80.2574 25.6619 80.0987 25.5286 79.952 25.4406C79.8264 25.1801 79.7568 24.8915 79.7432 24.5747C79.7489 24.2428 79.9223 23.6864 80.2632 22.9055C80.3482 22.3558 80.5744 21.7972 80.9417 21.2296C81.311 20.6448 81.7559 20.0867 82.2763 19.5554C82.7966 19.0241 83.3258 18.564 83.8637 18.1749C84.4037 17.7686 84.8772 17.4766 85.2841 17.299C85.5552 17.0872 85.8901 16.997 86.2889 17.0285C86.7049 17.0621 87.0575 17.1841 87.3467 17.3947C87.5086 17.5021 87.6771 17.6978 87.8523 17.9819C88.0275 18.266 88.1919 18.5663 88.3456 18.8827C88.5014 19.1819 88.6173 19.45 88.6932 19.6869C88.7217 19.8829 88.7436 20.0607 88.7591 20.2201C88.7939 20.3644 88.8072 20.5411 88.799 20.7502C88.7908 20.9592 88.7355 21.2675 88.6329 21.6751C88.5086 21.9749 88.3918 22.2844 88.2826 22.6036C88.1928 22.9076 88.1277 23.2235 88.0875 23.5511C88.0128 23.8746 88.0187 24.1116 88.1052 24.2623C88.209 24.4151 88.3804 24.4449 88.6194 24.3517C88.839 24.2736 89.0557 24.2915 89.2692 24.4052C89.485 24.5017 89.6232 24.6587 89.684 24.8763C89.7642 25.0787 89.7077 25.3255 89.5143 25.6169C89.3833 25.8284 89.193 26.0238 88.9434 26.2032C88.6938 26.3826 88.4226 26.5244 88.1298 26.6285C87.839 26.7153 87.5643 26.7428 87.3056 26.7111C87.1159 26.6878 86.9347 26.5955 86.762 26.4343C86.5913 26.2558 86.4443 26.0277 86.3208 25.7499C86.1974 25.4722 86.103 25.1718 86.0376 24.8487L85.9555 24.2346L84.9194 24.9739C84.6656 25.1878 84.4139 25.3845 84.1643 25.5639C83.9341 25.7282 83.7878 25.8503 83.7255 25.9301C83.6202 26.0748 83.4308 26.1916 83.1573 26.2805C82.901 26.3716 82.5651 26.4704 82.1494 26.5769ZM83.1527 24.1793C83.467 24.0429 83.7425 23.8666 83.9791 23.6506C84.2329 23.4367 84.4813 23.1959 84.7242 22.9281C84.9693 22.6431 85.2337 22.343 85.5175 22.0277C85.8594 21.6671 86.1055 21.3735 86.2558 21.1469C86.4234 20.9224 86.5587 20.6764 86.6615 20.409C86.6158 20.2108 86.5453 20.0008 86.45 19.7791C86.3568 19.5401 86.251 19.4045 86.1324 19.3725C85.8909 19.3428 85.5798 19.4534 85.1989 19.7042C84.8352 19.9571 84.4212 20.3352 83.9568 20.8383C83.8772 20.9161 83.7741 21.0435 83.6473 21.2204C83.5205 21.3974 83.3948 21.5658 83.2702 21.7256C83.1649 21.8702 83.0918 21.9662 83.051 22.0137C82.9908 22.0764 82.8931 22.2307 82.7579 22.4766C82.642 22.7075 82.5337 22.948 82.4329 23.1982C82.3343 23.4312 82.2786 23.5994 82.2659 23.7029C82.2532 23.8063 82.2481 23.9195 82.2505 24.0423C82.2702 24.1673 82.3469 24.2554 82.4806 24.3069C82.6143 24.3583 82.8384 24.3158 83.1527 24.1793Z" fill="#220505"/>
<path d="M91.345 27.2071C91.0343 27.0289 90.7924 26.7891 90.6194 26.4878C90.4657 26.1713 90.4142 25.8062 90.465 25.3923C90.4862 25.2198 90.5567 24.9309 90.6765 24.5255C90.7963 24.1201 90.9483 23.6661 91.1325 23.1636C91.3168 22.661 91.4968 22.193 91.6726 21.7594C91.8831 21.4702 92.0333 21.1736 92.1232 20.8695C92.2303 20.5676 92.2881 20.3821 92.2965 20.3131C92.3564 20.1104 92.4507 19.8419 92.5792 19.5076C92.7078 19.1733 92.8321 18.8735 92.9522 18.6081C93.0917 18.3277 93.1808 18.1723 93.2195 18.142C93.3163 18.0664 93.4693 18.0327 93.6783 18.0408C93.8874 18.049 94.0912 18.1003 94.2896 18.1947C94.4902 18.2718 94.6144 18.4008 94.6622 18.5818C94.8265 18.812 94.8919 19.1351 94.8583 19.5511C94.842 19.9692 94.7051 20.4426 94.4476 20.9711C94.2501 21.2969 94.0451 21.6832 93.8327 22.1297C93.6204 22.5763 93.4295 22.9905 93.26 23.3723C93.11 23.739 93.0179 23.9902 92.9837 24.1261L92.0556 23.9859C92.3827 23.7459 92.6935 23.4953 92.9882 23.2339C93.285 22.9552 93.5043 22.7371 93.6462 22.5794C93.9881 22.2188 94.2784 21.9219 94.5171 21.6886C94.7751 21.4402 95.0999 21.1475 95.4914 20.8104C95.885 20.4561 96.2897 20.2257 96.7053 20.1192C97.1232 19.9955 97.4269 19.9453 97.6166 19.9686C97.9875 20.0841 98.2995 20.3237 98.5524 20.6874C98.8247 21.0359 98.9572 21.5248 98.95 22.1541C98.9203 22.3955 98.8595 22.6769 98.7675 22.9982C98.6928 23.3216 98.6555 23.4833 98.6555 23.4833C98.6555 23.4833 98.8146 23.3278 99.1329 23.0168C99.4684 22.7079 99.904 22.3675 100.44 21.9957C100.797 21.7945 101.133 21.6957 101.448 21.6993C101.765 21.6857 102.028 21.8231 102.237 22.1114C102.656 22.4079 102.932 22.8706 103.065 23.4996C103.198 24.1286 103.183 24.8182 103.021 25.5685C102.914 26.0105 102.87 26.3727 102.887 26.655C102.925 26.9221 102.965 27.1634 103.009 27.3788C103.195 27.7167 103.195 27.9969 103.01 28.2193C102.828 28.4244 102.676 28.5196 102.555 28.5047C102.383 28.4836 102.128 28.4173 101.792 28.306C101.455 28.1946 101.151 28.0348 100.879 27.8263C100.625 27.62 100.515 27.3702 100.551 27.0771L100.748 25.4733C100.795 25.0939 100.811 24.8158 100.798 24.6392C100.804 24.4473 100.776 24.3213 100.713 24.2611C100.536 24.1344 100.294 24.1834 99.9861 24.4082C99.6784 24.633 99.3311 24.9667 98.9441 25.4093C98.5766 25.8368 98.1757 26.3215 97.7416 26.8634C97.3483 27.3577 97.0407 27.6526 96.819 27.7479C96.5993 27.826 96.4021 27.793 96.2272 27.649C95.8626 27.4817 95.6413 27.2882 95.5632 27.0686C95.5045 26.8338 95.5266 26.5827 95.6295 26.3152C95.7517 26.0326 95.9018 25.666 96.0796 25.2152C96.2748 24.7665 96.4592 24.334 96.6328 23.9177C96.8086 23.4841 96.9264 23.166 96.9863 22.9633C96.9343 22.8169 96.8189 22.7589 96.6401 22.7895C96.4806 22.8049 96.3073 22.8624 96.12 22.962C95.8961 23.0745 95.6539 23.1936 95.3934 23.3191C95.1502 23.4468 94.8427 23.7416 94.4708 24.2036C94.2237 24.5059 93.9464 24.8394 93.639 25.2043C93.3338 25.552 93.05 25.8672 92.7877 26.1501C92.5426 26.4351 92.3437 26.6295 92.1909 26.7333C92.0321 27.0288 91.8957 27.2134 91.7816 27.2869C91.6697 27.3432 91.5241 27.3166 91.345 27.2071Z" fill="#220505"/>
<path d="M102.356 35.5436C102.287 35.5351 102.184 35.5224 102.046 35.5055C101.923 35.5079 101.828 35.4262 101.761 35.2604C101.702 35.1657 101.62 34.9806 101.514 34.7049C101.406 34.4466 101.422 34.0985 101.563 33.6607C101.686 33.3781 101.791 33.0934 101.878 32.8066C101.964 32.5371 102.015 32.3333 102.032 32.1953C102.041 32.1264 102.075 31.9905 102.135 31.7878C102.21 31.6045 102.253 31.4697 102.263 31.3834C102.366 31.2561 102.459 31.0749 102.54 30.8398C102.621 30.6047 102.674 30.3923 102.697 30.2026C102.722 29.9957 102.849 29.8187 103.077 29.6716C103.094 29.5337 103.141 29.3644 103.218 29.1638C103.313 28.9653 103.364 28.8316 103.373 28.7626C103.454 28.5276 103.618 28.1188 103.865 27.5364C104.13 26.9389 104.44 26.268 104.794 25.5237C105.166 24.7816 105.526 24.0556 105.876 23.3458C106.225 22.6361 106.536 22.0352 106.806 21.5433C107.072 21.0858 107.3 20.6586 107.489 20.2617C107.677 19.8647 107.782 19.58 107.803 19.4076C107.812 19.3386 107.836 19.289 107.874 19.2587C107.915 19.2112 108.004 19.1259 108.142 19.0028C108.336 18.8515 108.567 18.8187 108.837 18.9043C109.126 18.9748 109.357 19.0906 109.529 19.2519C109.64 19.493 109.709 19.7116 109.738 19.9076C109.785 20.0886 109.752 20.3645 109.636 20.7354C109.604 20.9941 109.514 21.2281 109.366 21.4375C109.22 21.6296 109.087 21.7883 108.966 21.9135C108.865 22.0236 108.833 22.0722 108.87 22.0592C109.685 21.6867 110.397 21.5203 111.005 21.56C111.632 21.5844 112.137 21.7514 112.519 22.0609C112.921 22.3553 113.207 22.7318 113.378 23.1905C113.549 23.6491 113.604 24.1285 113.543 24.6286C113.518 24.8355 113.415 25.103 113.234 25.431C113.054 25.7589 112.859 26.0675 112.648 26.3568C112.44 26.6287 112.277 26.8101 112.161 26.9009C112.092 26.8924 112.016 26.9443 111.932 27.0566C111.85 27.1516 111.767 27.2638 111.681 27.3933C111.521 27.5488 111.264 27.7185 110.909 27.9025C110.573 28.0713 110.233 28.2046 109.888 28.3023C109.546 28.3828 109.309 28.3887 109.177 28.32C109.177 28.32 109.149 28.3341 109.093 28.3622C109.055 28.3925 109.03 28.4507 109.019 28.537C109.015 28.5715 108.886 28.6256 108.632 28.6994C108.378 28.7733 108.082 28.8332 107.743 28.8792C107.405 28.9252 107.098 28.9312 106.822 28.8973C106.46 28.8529 106.21 28.7521 106.071 28.5951C106.033 28.6254 105.983 28.6718 105.923 28.7344C105.88 28.7992 105.855 28.8574 105.849 28.9092C105.836 29.0126 105.773 29.1712 105.659 29.3848C105.563 29.6005 105.452 29.7882 105.328 29.948C105.201 30.125 105.094 30.2082 105.008 30.1976C105.008 30.1976 104.988 30.2213 104.947 30.2688C104.906 30.3163 104.915 30.3874 104.973 30.4821C104.973 30.4821 104.953 30.5759 104.912 30.7635C104.887 30.9704 104.823 31.1376 104.72 31.2649C104.703 31.4029 104.651 31.6067 104.566 31.8762C104.48 32.1458 104.394 32.3453 104.308 32.4748C104.283 32.6818 104.224 32.8759 104.132 33.0571C104.055 33.2577 103.982 33.3537 103.913 33.3453C103.842 33.354 103.786 33.4522 103.745 33.6398C103.703 33.8446 103.676 33.9901 103.665 34.0764C103.595 34.5054 103.412 34.8592 103.115 35.1379C102.816 35.4337 102.563 35.569 102.356 35.5436ZM106.779 26.8965C106.917 26.9134 107.174 26.8838 107.551 26.8075C107.928 26.7313 108.326 26.6313 108.743 26.5075C109.163 26.3665 109.497 26.2149 109.745 26.0528C110.242 25.7112 110.634 25.3655 110.922 25.0158C111.227 24.6681 111.262 24.2435 111.026 23.7419C110.918 23.4835 110.705 23.3612 110.388 23.3748C110.091 23.3733 109.746 23.471 109.355 23.668C108.963 23.8649 108.555 24.1212 108.131 24.4368C107.897 24.6355 107.675 24.8709 107.467 25.1429C107.258 25.4149 107.077 25.6814 106.922 25.9425C106.785 26.2058 106.696 26.4312 106.655 26.6187C106.617 26.7891 106.658 26.8816 106.779 26.8965Z" fill="#220505"/>
<path d="M114.113 30.2389C113.953 30.1143 113.781 29.9444 113.598 29.7293C113.416 29.4969 113.337 29.2859 113.36 29.0962C113.392 28.8375 113.466 28.5227 113.581 28.1518C113.699 27.7636 113.809 27.4358 113.912 27.1684C113.985 26.8622 114.066 26.5571 114.156 26.253C114.265 25.9338 114.423 25.6469 114.629 25.3921C114.899 24.7601 115.177 24.1378 115.462 23.5251C115.75 22.8952 116.013 22.2449 116.253 21.5741C116.556 20.9636 116.823 20.4275 117.055 19.9658C117.306 19.489 117.616 18.8881 117.985 18.1632C118.193 17.7511 118.378 17.31 118.541 16.8399C118.723 16.3546 118.959 15.9284 119.25 15.5615C119.372 15.419 119.466 15.2991 119.53 15.202C119.614 15.0898 119.697 14.9862 119.778 14.8912C119.804 14.8243 119.898 14.7745 120.059 14.7418C120.238 14.7113 120.414 14.7066 120.586 14.7278C120.778 14.7338 120.903 14.7842 120.961 14.8789C121.015 14.868 121.093 14.9476 121.195 15.1176C121.298 15.2704 121.39 15.448 121.471 15.6504C121.57 15.8376 121.605 15.9819 121.575 16.0833C121.566 16.1523 121.538 16.245 121.488 16.3615C121.456 16.4801 121.399 16.5869 121.318 16.6819C121.24 16.7424 121.158 16.8374 121.073 16.9669C121.006 17.0812 120.899 17.2431 120.75 17.4525C120.654 17.6682 120.565 17.8936 120.484 18.1287C120.404 18.3465 120.31 18.545 120.2 18.7241C120.106 18.9226 119.995 19.1103 119.869 19.2873C119.759 19.4664 119.68 19.6142 119.63 19.7307C119.461 20.1125 119.267 20.4825 119.048 20.8407C118.846 21.201 118.658 21.5894 118.485 22.0057C118.313 22.4047 118.139 22.821 117.964 23.2546C117.79 23.6709 117.567 24.0636 117.294 24.4327C117.15 24.6076 117.034 24.8384 116.946 25.1252C116.858 25.412 116.771 25.6989 116.683 25.9857C116.541 26.2834 116.411 26.5649 116.29 26.8302C116.19 27.0804 116.135 27.24 116.127 27.309C115.977 27.6757 115.852 28.0456 115.754 28.4186C115.675 28.7765 115.55 29.085 115.378 29.3439C115.339 29.5143 115.256 29.6966 115.127 29.8908C114.998 30.085 114.841 30.2233 114.656 30.3056C114.488 30.39 114.307 30.3678 114.113 30.2389Z" fill="#220505"/>
<path d="M119.206 31.2581C118.567 30.8996 118.157 30.3941 117.974 29.7415C117.792 29.0889 117.824 28.2527 118.072 27.2328C118.172 26.7024 118.198 26.3468 118.151 26.1659C118.105 25.9677 117.998 25.7707 117.829 25.575C117.786 25.4997 117.679 25.3728 117.508 25.1943C117.34 24.9985 117.27 24.8586 117.297 24.7745C117.295 24.6517 117.339 24.5082 117.429 24.3443C117.521 24.163 117.594 24.067 117.648 24.0561C117.775 24.0192 117.903 23.9736 118.033 23.9195C118.179 23.8674 118.285 23.8629 118.349 23.9059C118.418 23.9143 118.516 23.9701 118.644 24.0733C118.788 24.1786 118.857 24.2657 118.848 24.3347C118.902 24.4639 119.012 24.4249 119.178 24.2176C119.36 24.0125 119.559 23.7481 119.774 23.4243C119.98 23.1696 120.227 22.9374 120.516 22.7277C120.804 22.518 121.089 22.3342 121.371 22.1763C121.673 22.0032 121.924 21.8766 122.127 21.7964C122.217 21.7725 122.387 21.7409 122.637 21.7016C122.904 21.6644 123.178 21.6454 123.458 21.6448C123.741 21.627 123.95 21.6351 124.085 21.6693C124.394 21.7247 124.706 21.8943 125.021 22.178C125.336 22.4618 125.576 22.7188 125.74 22.9491C125.945 23.1318 126.062 23.3912 126.091 23.7273C126.139 24.0483 126.133 24.3802 126.074 24.723C126.014 25.0658 125.909 25.3505 125.759 25.5771C125.686 25.7432 125.475 25.9624 125.127 26.2347C124.778 26.507 124.396 26.7664 123.981 27.013C123.585 27.2445 123.251 27.3961 122.98 27.4678C122.749 27.492 122.477 27.5023 122.162 27.4986C121.849 27.4778 121.556 27.4418 121.282 27.3906C121.028 27.3244 120.852 27.2591 120.755 27.1946C120.643 27.1108 120.536 27.124 120.435 27.2341C120.353 27.3291 120.257 27.6149 120.146 28.0914C120.105 28.2789 120.085 28.4428 120.086 28.5829C120.103 28.725 120.125 28.8328 120.151 28.906C120.246 29.1277 120.348 29.2978 120.456 29.416C120.566 29.5171 120.787 29.5705 121.119 29.5762C121.451 29.582 121.803 29.4239 122.175 29.102C122.567 28.7649 122.914 28.5013 123.217 28.3109C123.301 28.1987 123.457 28.1391 123.686 28.1321C123.934 28.11 124.216 28.1622 124.533 28.2887C124.708 28.4327 124.771 28.633 124.722 28.8895C124.69 29.1482 124.506 29.5107 124.168 29.9769C124.102 30.0912 123.933 30.2543 123.662 30.4661C123.41 30.6628 123.131 30.8649 122.826 31.0724C122.54 31.2649 122.304 31.4022 122.119 31.4845C121.568 31.6969 121.043 31.7638 120.545 31.6851C120.047 31.6065 119.601 31.4641 119.206 31.2581ZM121.835 25.6729C122.102 25.6357 122.326 25.5932 122.507 25.5454C122.705 25.4997 122.9 25.4099 123.091 25.2758C123.283 25.1418 123.51 24.9333 123.772 24.6505C123.864 24.4692 123.919 24.3096 123.936 24.1717C123.97 24.0358 123.972 23.9485 123.942 23.9098C123.821 23.7549 123.671 23.6927 123.492 23.7233C123.332 23.7387 123.149 23.8038 122.943 23.9185C122.816 23.9554 122.63 24.0463 122.384 24.1912C122.158 24.321 121.929 24.4767 121.697 24.6582C121.484 24.8246 121.306 24.9866 121.164 25.1443C121.042 25.2868 121.013 25.3795 121.078 25.4225C121.035 25.4872 121.124 25.542 121.346 25.5867C121.586 25.6336 121.748 25.6624 121.835 25.6729Z" fill="#220505"/>
<path d="M128.638 28.4251C128.145 28.4521 127.79 28.2072 127.573 27.6904C127.359 27.1564 127.483 26.2877 127.946 25.0842C128.075 24.8899 128.185 24.7022 128.277 24.521C128.372 24.3225 128.426 24.1629 128.441 24.0422C128.538 23.8265 128.656 23.5784 128.795 23.2979C128.954 23.0023 129.11 22.7326 129.262 22.4888C129.417 22.2277 129.525 22.0572 129.588 21.9773C129.657 21.9858 129.733 21.9339 129.817 21.8216C129.918 21.7115 129.976 21.5961 129.991 21.4754C130.008 21.3374 130.052 21.1854 130.125 21.0193C130.215 20.8553 130.299 20.7431 130.377 20.6825C130.387 20.5963 130.433 20.5057 130.515 20.4107C130.597 20.3157 130.642 20.2337 130.65 20.1647C130.659 20.0957 130.684 20.0375 130.724 19.99C130.782 19.9446 130.816 19.8874 130.824 19.8185C131.013 19.5616 131.261 19.1807 131.568 18.6757C131.895 18.1557 132.216 17.6087 132.531 17.0347C132.864 16.4629 133.145 15.9548 133.375 15.5103C133.605 15.0659 133.726 14.7919 133.738 14.6885C133.79 14.5547 133.858 14.4318 133.941 14.3195C134.025 14.2073 134.134 14.1769 134.268 14.2283C134.343 14.185 134.45 14.1719 134.588 14.1888C134.728 14.1885 134.832 14.1926 134.901 14.201C134.901 14.201 134.975 14.2451 135.121 14.3331C135.268 14.4211 135.393 14.5415 135.497 14.6943C135.62 14.832 135.678 15.0053 135.669 15.2144C135.661 15.4234 135.645 15.6314 135.619 15.8384C135.562 16.1639 135.395 16.5199 135.12 16.9062C134.845 17.2926 134.539 17.7189 134.202 18.1851C133.989 18.4916 133.779 18.7808 133.57 19.0528C133.379 19.3269 133.279 19.4985 133.271 19.5674C133.262 19.6364 133.215 19.7357 133.129 19.8652C133.043 19.9946 132.944 20.1576 132.833 20.3539C132.708 20.5137 132.579 20.7079 132.446 20.9366C132.33 21.1675 132.225 21.3821 132.131 21.5806C132.038 21.7618 131.989 21.8783 131.983 21.93C131.957 21.9969 131.923 22.0627 131.88 22.1275C131.854 22.1943 131.803 22.258 131.725 22.3185C131.656 22.31 131.607 22.3565 131.577 22.4578C131.566 22.5441 131.561 22.5872 131.561 22.5872C131.552 22.6562 131.489 22.8147 131.371 23.0628C131.272 23.2957 131.116 23.5741 130.901 23.8978C130.461 24.7716 130.138 25.4759 129.933 26.0108C129.729 26.5285 129.587 26.9749 129.506 27.35C129.42 27.7597 129.29 28.0326 129.116 28.1687C128.944 28.2876 128.785 28.3731 128.638 28.4251ZM126.775 32.2663C126.396 32.3598 126.087 32.3831 125.847 32.3362C125.606 32.3065 125.353 32.1616 125.087 31.9014C124.784 31.5142 124.706 31.1545 124.852 30.8223C125.017 30.475 125.37 30.1682 125.91 29.9019C126.282 29.7201 126.546 29.6387 126.701 29.6577C126.876 29.6617 127.119 29.7527 127.429 29.9309C127.971 30.3651 128.18 30.8021 128.056 31.242C127.934 31.6646 127.507 32.0061 126.775 32.2663Z" fill="#220505"/>
</svg>
