<svg width="66" height="66" viewBox="0 0 66 66" fill="none" xmlns="http://www.w3.org/2000/svg">
<path fill-rule="evenodd" clip-rule="evenodd" d="M33 66C51.2246 66 66 51.2253 66 33C66 14.7747 51.2246 0 33 0C14.7754 0 0 14.7747 0 33C0 51.2253 14.7754 66 33 66ZM48 32.8726C48 31.666 46.4258 30.2014 43.6191 30.6863C41.043 31.1296 39.25 32.8623 39.25 32.8623C39.25 32.8623 41.0742 34.5742 43.6309 35.0488C46.2383 35.5334 48 34.0793 48 32.8726ZM37.4355 28.5513C37.4355 28.5513 39.959 28.4895 42.0977 27.0662C44.2871 25.6016 44.4844 23.343 43.6094 22.4871C42.7441 21.6311 40.5742 21.6929 38.9473 23.9722C37.4453 26.0762 37.4355 28.5513 37.4355 28.5513ZM33.0449 18.1348C31.8145 18.1348 30.3242 19.6714 30.8242 22.425C31.2832 24.9519 33.0547 26.7258 33.0547 26.7258C33.0547 26.7258 34.7969 24.9314 35.2773 22.4355C35.7676 19.8777 34.2754 18.1348 33.0449 18.1348ZM31.209 34.2751C32.2012 35.2446 33.7969 35.2446 34.7871 34.2751C35.7773 33.3057 35.7676 31.738 34.7871 30.7686C33.7969 29.7993 32.2012 29.7993 31.209 30.7686C30.2188 31.738 30.2285 33.3057 31.209 34.2751ZM35.2344 43.2375C34.7441 40.7314 33.0039 38.9368 33.0039 38.9368C33.0039 38.9368 31.2305 40.7004 30.7812 43.2273C30.293 45.981 31.7832 47.5176 33.0137 47.5278C34.2441 47.5278 35.7363 45.7952 35.2344 43.2375ZM28.623 37.1113C28.623 37.1113 26.0996 37.1321 23.9609 38.5964C21.6367 40.1951 21.5742 42.3196 22.4492 43.1755C23.3145 44.0317 25.6191 43.8357 27.1113 41.6904C28.5723 39.5867 28.623 37.1113 28.623 37.1113ZM23.9922 26.7671C26.1406 28.2419 28.666 28.2625 28.666 28.2625C28.666 28.2625 28.6035 25.7874 27.1426 23.6833C25.6504 21.5278 23.3457 21.332 22.4707 22.188C21.6055 23.0439 21.668 25.1685 23.9922 26.7671ZM18.0176 32.8313C18.0176 34.0381 19.791 35.5024 22.3984 35.0178C24.9414 34.5435 26.7676 32.8416 26.7676 32.8416C26.7676 32.8416 24.9727 31.0986 22.3867 30.6553C19.582 30.1704 18.0176 31.635 18.0176 32.8313ZM37.1758 37.1628C37.1641 37.1628 37.1855 39.6382 38.6875 41.7422C40.3242 44.0317 42.4824 44.0935 43.3594 43.2375C44.2344 42.3816 44.0273 40.1228 41.8359 38.6584C39.6875 37.2249 37.1758 37.1628 37.1758 37.1628Z" fill="#F9D0D6"/>
</svg>
