<svg width="13" height="14" viewBox="0 0 13 14" fill="none" xmlns="http://www.w3.org/2000/svg">
<path d="M6.79923 14C6.41134 14 6.12873 13.8692 5.95141 13.6075C5.78517 13.3567 5.70205 13.0296 5.70205 12.6262C5.70205 12.19 5.73529 11.803 5.80179 11.465C5.87937 11.1269 5.96803 10.7835 6.06777 10.4346C5.52472 10.4782 4.97613 10.5218 4.42199 10.5654C3.86786 10.5981 3.31373 10.6254 2.75959 10.6472C2.5601 10.7998 2.34953 10.9198 2.12788 11.007C1.90622 11.0942 1.65132 11.1379 1.36317 11.1379C0.942029 11.1379 0.609548 11.0506 0.365729 10.8762C0.12191 10.7017 0 10.4237 0 10.0421C0 9.60592 0.132992 9.28427 0.398977 9.0771C0.676044 8.85903 1.02515 8.70639 1.44629 8.61916C2.00043 7.95405 2.60443 7.28894 3.25831 6.62383C3.91219 5.95872 4.56053 5.29907 5.20332 4.64486C5.84612 3.99065 6.42242 3.34735 6.93222 2.71495C7.45311 2.07165 7.84655 1.4447 8.11253 0.834112C8.24552 0.528816 8.42839 0.3162 8.66112 0.196262C8.90494 0.0654207 9.16539 0 9.44245 0C9.83035 0 10.0908 0.147196 10.2238 0.441589C10.3679 0.735982 10.4399 1.09034 10.4399 1.50467C10.4399 1.6028 10.4011 1.85358 10.3235 2.25701C10.2459 2.64953 10.1351 3.15654 9.99105 3.77804C9.85806 4.38863 9.7029 5.07009 9.52557 5.82243C9.35933 6.56386 9.18755 7.33255 9.01023 8.1285C9.74169 8.05218 10.3734 7.99221 10.9054 7.9486C11.4373 7.89408 11.7754 7.86682 11.9194 7.86682C12.2408 7.86682 12.5013 7.89953 12.7008 7.96495C12.9003 8.03037 13 8.19393 13 8.45561C13 8.69548 12.8448 8.8972 12.5345 9.06075C12.2353 9.2134 11.9084 9.34969 11.5537 9.46963C11.1991 9.58956 10.7724 9.7095 10.2737 9.82944C9.77494 9.94938 9.19309 10.0584 8.52813 10.1565C8.41731 10.6036 8.30648 11.0288 8.19565 11.4322C8.08482 11.8357 7.97954 12.2991 7.87979 12.8224C7.80222 13.1713 7.68585 13.4548 7.53069 13.6729C7.38662 13.891 7.1428 14 6.79923 14ZM7.3977 4.98832C6.85465 5.64252 6.28943 6.29673 5.70205 6.95093C5.12575 7.59424 4.57161 8.17757 4.03964 8.70093C4.4497 8.64642 4.8653 8.59735 5.28644 8.55374C5.71867 8.51012 6.15089 8.46651 6.58312 8.4229L7.3977 4.98832Z" fill="#FF4F14"/>
</svg>
