<svg width="10" height="14" viewBox="0 0 10 14" fill="none" xmlns="http://www.w3.org/2000/svg">
<path d="M1.46067 14C0.925629 14 0.545746 13.8636 0.321027 13.5907C0.107009 13.3293 0 13.0564 0 12.7722C0 12.5221 0.0535045 12.2891 0.160514 12.0731C0.278224 11.8457 0.481541 11.6638 0.770465 11.5274C1.05939 11.391 1.47137 11.3341 2.00642 11.3569C2.54147 11.0613 3.08186 10.6975 3.62761 10.2655C4.18406 9.83354 4.71375 9.35607 5.21669 8.83313C5.73034 8.31019 6.18513 7.77588 6.58106 7.23021C6.98769 6.67316 7.30337 6.12749 7.52809 5.59318C7.76351 5.0475 7.88122 4.53593 7.88122 4.05847C7.88122 3.54689 7.73141 3.16037 7.43178 2.8989C7.14286 2.63743 6.73622 2.5067 6.21188 2.5067C5.76244 2.5067 5.35045 2.56354 4.97592 2.67722C4.60139 2.77954 4.26966 2.90459 3.98074 3.05238C3.69181 3.20016 3.44569 3.3309 3.24238 3.44458C3.04976 3.54689 2.8946 3.59805 2.77689 3.59805C2.57357 3.59805 2.39165 3.50711 2.23114 3.32521C2.07063 3.13195 2.02247 2.88185 2.08668 2.57491C2.12948 2.37028 2.25789 2.12586 2.47191 1.84166C2.68593 1.55745 2.9802 1.27324 3.35473 0.989038C3.72927 0.704832 4.17335 0.471782 4.687 0.289891C5.21134 0.0966302 5.79989 0 6.45265 0C7.50134 0 8.35206 0.341047 9.00482 1.02314C9.66827 1.70524 10 2.74543 10 4.14373C10 5.06456 9.76993 5.96833 9.30979 6.85505C8.86035 7.74178 8.2611 8.58303 7.51204 9.37881C6.76297 10.1746 5.94435 10.9022 5.05618 11.5615C5.85875 11.5274 6.48475 11.4762 6.93419 11.408C7.38363 11.3285 7.74211 11.2603 8.00963 11.2034C8.28785 11.1466 8.55538 11.1181 8.8122 11.1181C9.17603 11.1181 9.4596 11.1977 9.66292 11.3569C9.86624 11.516 9.9679 11.7434 9.9679 12.039C9.9679 12.255 9.91439 12.4653 9.80738 12.6699C9.71107 12.8745 9.51846 13.0621 9.22953 13.2326C8.94061 13.3918 8.52327 13.5168 7.97753 13.6078C7.43178 13.7101 6.71482 13.7613 5.82664 13.7613C5.3023 13.7613 4.7619 13.7556 4.20546 13.7442C3.65971 13.7328 3.13002 13.7158 2.61637 13.6931C2.31675 13.8067 2.08133 13.8863 1.91011 13.9318C1.7496 13.9773 1.59979 14 1.46067 14Z" fill="#FF4F14"/>
</svg>
